# MagicaVoxel @ Ephtracy

# group
o Spine3-2

# material
mtllib RPGCharacters_Source-3-Spine3-2.mtl
usemtl palette

# normals
vn -1 0 0
vn 1 0 0
vn 0 0 1
vn 0 0 -1
vn 0 -1 0
vn 0 1 0

# texcoords
vt 0.533203 0.5
vt 0.541016 0.5
vt 0.759766 0.5
vt 0.884766 0.5
vt 0.892578 0.5
vt 0.896484 0.5

# verts
v -0.3 -0.05 0.25
v -0.3 -0.05 0.15
v -0.3 -0.05 0.05
v -0.3 -0.05 -0.15
v -0.3 0.05 0.35
v -0.3 0.05 0.25
v -0.3 0.05 0.05
v -0.3 0.05 -0.05
v -0.3 0.15 0.35
v -0.3 0.15 0.25
v -0.3 0.15 0.15
v -0.3 0.15 -0.05
v -0.3 0.15 -0.15
v -0.3 0.25 -0.05
v -0.3 0.25 -0.15
v -0.3 0.35 0.35
v -0.3 0.35 0.25
v -0.3 0.35 -0.05
v -0.3 0.35 -0.15
v -0.3 0.45 0.25
v -0.3 0.45 -0.05
v -0.2 -0.05 0.35
v -0.2 -0.05 0.25
v -0.2 0.05 0.35
v -0.2 0.05 0.25
v -0.2 0.35 -0.05
v -0.2 0.35 -0.15
v -0.2 0.35 -0.35
v -0.2 0.45 -0.05
v -0.2 0.45 -0.15
v -0.2 0.45 -0.35
v -0.1 -0.45 -0.15
v -0.1 -0.45 -0.25
v -0.1 -0.35 -0.25
v -0.1 -0.35 -0.35
v -0.1 -0.05 -0.15
v -0.1 0.05 -0.15
v -0.1 0.15 -0.15
v -0.1 0.25 -0.15
v -0.1 0.25 -0.35
v -0.1 0.35 0.35
v -0.1 0.35 0.25
v -0.1 0.35 -0.15
v -0.1 0.35 -0.35
v -0.1 0.35 -0.45
v -0.1 0.45 0.35
v -0.1 0.45 0.25
v -0.1 0.45 -0.35
v -0.1 0.45 -0.45
v 0 0.05 0.45
v 0 0.05 0.35
v 0 0.15 0.35
v 0 0.25 0.35
v 0 0.35 0.45
v 0 0.35 0.35
v 0.1 0.35 -0.15
v 0.1 0.35 -0.35
v 0.1 0.45 -0.15
v 0.1 0.45 -0.35
v -0.1 0.35 -0.15
v -0.1 0.35 -0.35
v -0.1 0.45 -0.15
v -0.1 0.45 -0.35
v 0.1 -0.45 -0.15
v 0.1 -0.45 -0.25
v 0.1 -0.35 -0.25
v 0.1 -0.35 -0.35
v 0.1 -0.05 -0.15
v 0.1 0.05 -0.15
v 0.1 0.15 0.45
v 0.1 0.15 0.35
v 0.1 0.15 -0.15
v 0.1 0.25 0.45
v 0.1 0.25 0.35
v 0.1 0.25 -0.15
v 0.1 0.25 -0.35
v 0.1 0.35 0.35
v 0.1 0.35 0.25
v 0.1 0.35 -0.15
v 0.1 0.35 -0.35
v 0.1 0.35 -0.45
v 0.1 0.45 0.35
v 0.1 0.45 0.25
v 0.1 0.45 -0.35
v 0.1 0.45 -0.45
v 0.2 -0.05 0.35
v 0.2 -0.05 0.25
v 0.2 0.05 0.45
v 0.2 0.05 0.35
v 0.2 0.05 0.25
v 0.2 0.15 0.45
v 0.2 0.15 0.35
v 0.2 0.25 0.45
v 0.2 0.25 0.35
v 0.2 0.35 0.45
v 0.2 0.35 0.35
v 0.2 0.35 -0.05
v 0.2 0.35 -0.15
v 0.2 0.35 -0.35
v 0.2 0.45 -0.05
v 0.2 0.45 -0.15
v 0.2 0.45 -0.35
v 0.3 -0.05 0.25
v 0.3 -0.05 0.15
v 0.3 -0.05 0.05
v 0.3 -0.05 -0.15
v 0.3 0.05 0.35
v 0.3 0.05 0.25
v 0.3 0.05 0.05
v 0.3 0.05 -0.05
v 0.3 0.15 0.35
v 0.3 0.15 0.25
v 0.3 0.15 0.15
v 0.3 0.15 -0.05
v 0.3 0.15 -0.15
v 0.3 0.25 -0.05
v 0.3 0.25 -0.15
v 0.3 0.35 0.35
v 0.3 0.35 0.25
v 0.3 0.35 -0.05
v 0.3 0.35 -0.15
v 0.3 0.45 0.25
v 0.3 0.45 -0.05
v 0 0.05 0.45
v 0 0.35 0.45
v 0.1 0.15 0.45
v 0.1 0.25 0.45
v 0.2 0.05 0.45
v 0.2 0.15 0.45
v 0.2 0.25 0.45
v 0.2 0.35 0.45
v -0.3 0.05 0.35
v -0.3 0.15 0.35
v -0.3 0.35 0.35
v -0.2 -0.05 0.35
v -0.2 0.05 0.35
v -0.1 -0.05 0.35
v -0.1 0.05 0.35
v -0.1 0.15 0.35
v -0.1 0.25 0.35
v -0.1 0.35 0.35
v -0.1 0.45 0.35
v 0 0.05 0.35
v 0 0.15 0.35
v 0 0.25 0.35
v 0 0.35 0.35
v 0.1 -0.05 0.35
v 0.1 0.05 0.35
v 0.1 0.15 0.35
v 0.1 0.25 0.35
v 0.1 0.35 0.35
v 0.1 0.45 0.35
v 0.2 -0.05 0.35
v 0.2 0.05 0.35
v 0.2 0.15 0.35
v 0.2 0.25 0.35
v 0.2 0.35 0.35
v 0.3 0.05 0.35
v 0.3 0.15 0.35
v 0.3 0.35 0.35
v -0.3 -0.05 0.25
v -0.3 0.05 0.25
v -0.3 0.35 0.25
v -0.3 0.45 0.25
v -0.2 -0.05 0.25
v -0.2 0.05 0.25
v -0.1 0.35 0.25
v -0.1 0.45 0.25
v 0.1 0.35 0.25
v 0.1 0.45 0.25
v 0.2 -0.05 0.25
v 0.2 0.05 0.25
v 0.2 0.35 0.25
v 0.3 -0.05 0.25
v 0.3 0.05 0.25
v 0.3 0.35 0.25
v 0.3 0.45 0.25
v -0.1 -0.45 -0.15
v -0.1 -0.05 -0.15
v 0.1 -0.45 -0.15
v 0.1 -0.05 -0.15
v -0.1 0.35 -0.35
v -0.1 0.45 -0.35
v 0.1 0.35 -0.35
v 0.1 0.45 -0.35
v -0.3 0.35 -0.05
v -0.3 0.45 -0.05
v -0.2 0.35 -0.05
v -0.2 0.45 -0.05
v 0.2 0.35 -0.05
v 0.2 0.45 -0.05
v 0.3 0.35 -0.05
v 0.3 0.45 -0.05
v -0.3 -0.05 -0.15
v -0.3 0.15 -0.15
v -0.3 0.25 -0.15
v -0.3 0.35 -0.15
v -0.2 0.05 -0.15
v -0.2 0.15 -0.15
v -0.2 0.25 -0.15
v -0.2 0.35 -0.15
v -0.1 -0.05 -0.15
v -0.1 0.05 -0.15
v -0.1 0.15 -0.15
v -0.1 0.25 -0.15
v -0.1 0.35 -0.15
v -0.1 0.45 -0.15
v 0 0.35 -0.15
v 0 0.45 -0.15
v 0.1 -0.05 -0.15
v 0.1 0.05 -0.15
v 0.1 0.15 -0.15
v 0.1 0.25 -0.15
v 0.1 0.35 -0.15
v 0.1 0.45 -0.15
v 0.2 0.05 -0.15
v 0.2 0.15 -0.15
v 0.2 0.25 -0.15
v 0.2 0.35 -0.15
v 0.3 -0.05 -0.15
v 0.3 0.15 -0.15
v 0.3 0.25 -0.15
v 0.3 0.35 -0.15
v -0.1 -0.45 -0.25
v -0.1 -0.35 -0.25
v 0.1 -0.45 -0.25
v 0.1 -0.35 -0.25
v -0.2 0.35 -0.35
v -0.2 0.45 -0.35
v -0.1 -0.35 -0.35
v -0.1 0.25 -0.35
v -0.1 0.35 -0.35
v -0.1 0.45 -0.35
v 0.1 -0.35 -0.35
v 0.1 0.25 -0.35
v 0.1 0.35 -0.35
v 0.1 0.45 -0.35
v 0.2 0.35 -0.35
v 0.2 0.45 -0.35
v -0.1 0.35 -0.45
v -0.1 0.45 -0.45
v 0.1 0.35 -0.45
v 0.1 0.45 -0.45
v -0.1 -0.45 -0.15
v 0.1 -0.45 -0.15
v -0.1 -0.45 -0.25
v 0.1 -0.45 -0.25
v -0.1 -0.35 -0.25
v 0.1 -0.35 -0.25
v -0.1 -0.35 -0.35
v 0.1 -0.35 -0.35
v -0.2 -0.05 0.35
v -0.1 -0.05 0.35
v 0.1 -0.05 0.35
v 0.2 -0.05 0.35
v -0.3 -0.05 0.25
v -0.2 -0.05 0.25
v -0.1 -0.05 0.25
v 0.1 -0.05 0.25
v 0.2 -0.05 0.25
v 0.3 -0.05 0.25
v -0.3 -0.05 0.15
v -0.2 -0.05 0.15
v 0.2 -0.05 0.15
v 0.3 -0.05 0.15
v -0.3 -0.05 0.05
v -0.2 -0.05 0.05
v 0.2 -0.05 0.05
v 0.3 -0.05 0.05
v -0.1 -0.05 -0.05
v 0.1 -0.05 -0.05
v -0.3 -0.05 -0.15
v -0.1 -0.05 -0.15
v 0.1 -0.05 -0.15
v 0.3 -0.05 -0.15
v 0 0.05 0.45
v 0.2 0.05 0.45
v -0.3 0.05 0.35
v -0.2 0.05 0.35
v 0 0.05 0.35
v 0.1 0.05 0.35
v 0.2 0.05 0.35
v 0.3 0.05 0.35
v -0.3 0.05 0.25
v -0.2 0.05 0.25
v 0.2 0.05 0.25
v 0.3 0.05 0.25
v 0.1 0.25 0.45
v 0.2 0.25 0.45
v 0.1 0.25 0.35
v 0.2 0.25 0.35
v -0.2 0.35 -0.15
v -0.1 0.35 -0.15
v 0.1 0.35 -0.15
v 0.2 0.35 -0.15
v -0.2 0.35 -0.35
v -0.1 0.35 -0.35
v 0.1 0.35 -0.35
v 0.2 0.35 -0.35
v -0.1 0.35 -0.45
v 0.1 0.35 -0.45
v 0.1 0.15 0.45
v 0.2 0.15 0.45
v 0.1 0.15 0.35
v 0.2 0.15 0.35
v 0 0.35 0.45
v 0.2 0.35 0.45
v -0.3 0.35 0.35
v -0.1 0.35 0.35
v 0 0.35 0.35
v 0.1 0.35 0.35
v 0.2 0.35 0.35
v 0.3 0.35 0.35
v -0.3 0.35 0.25
v -0.1 0.35 0.25
v 0.1 0.35 0.25
v 0.2 0.35 0.25
v 0.3 0.35 0.25
v -0.3 0.35 -0.05
v -0.2 0.35 -0.05
v 0.2 0.35 -0.05
v 0.3 0.35 -0.05
v -0.3 0.35 -0.15
v -0.2 0.35 -0.15
v -0.1 0.35 -0.15
v 0 0.35 -0.15
v 0.1 0.35 -0.15
v 0.2 0.35 -0.15
v 0.3 0.35 -0.15
v -0.1 0.35 -0.35
v 0.1 0.35 -0.35
v -0.1 0.45 0.35
v 0.1 0.45 0.35
v -0.3 0.45 0.25
v -0.1 0.45 0.25
v 0.1 0.45 0.25
v 0.3 0.45 0.25
v -0.3 0.45 -0.05
v -0.2 0.45 -0.05
v -0.1 0.45 -0.05
v 0 0.45 -0.05
v 0.1 0.45 -0.05
v 0.2 0.45 -0.05
v 0.3 0.45 -0.05
v -0.2 0.45 -0.15
v -0.1 0.45 -0.15
v 0 0.45 -0.15
v 0.1 0.45 -0.15
v 0.2 0.45 -0.15
v -0.2 0.45 -0.35
v -0.1 0.45 -0.35
v 0.1 0.45 -0.35
v 0.2 0.45 -0.35
v -0.1 0.45 -0.45
v 0.1 0.45 -0.45

# faces
f 6/6/1 2/6/1 1/6/1
f 7/6/1 4/6/1 3/6/1
f 7/5/1 3/5/1 2/5/1
f 8/6/1 4/6/1 7/6/1
f 9/5/1 6/5/1 5/5/1
f 10/6/1 2/6/1 6/6/1
f 10/5/1 6/5/1 9/5/1
f 11/5/1 7/5/1 2/5/1
f 11/6/1 2/6/1 10/6/1
f 11/5/1 8/5/1 7/5/1
f 12/6/1 4/6/1 8/6/1
f 12/5/1 8/5/1 11/5/1
f 13/6/1 4/6/1 12/6/1
f 14/6/1 11/6/1 10/6/1
f 14/6/1 10/6/1 9/6/1
f 14/5/1 13/5/1 12/5/1
f 14/6/1 12/6/1 11/6/1
f 15/5/1 13/5/1 14/5/1
f 16/6/1 14/6/1 9/6/1
f 16/6/1 15/6/1 14/6/1
f 17/6/1 15/6/1 16/6/1
f 18/6/1 15/6/1 17/6/1
f 19/6/1 15/6/1 18/6/1
f 20/6/1 18/6/1 17/6/1
f 21/6/1 18/6/1 20/6/1
f 24/6/1 23/6/1 22/6/1
f 25/6/1 23/6/1 24/6/1
f 29/5/1 27/5/1 26/5/1
f 30/1/1 28/1/1 27/1/1
f 30/5/1 27/5/1 29/5/1
f 31/1/1 28/1/1 30/1/1
f 34/2/1 33/2/1 32/2/1
f 36/2/1 34/2/1 32/2/1
f 36/2/1 35/2/1 34/2/1
f 37/2/1 35/2/1 36/2/1
f 38/2/1 35/2/1 37/2/1
f 39/2/1 35/2/1 38/2/1
f 40/2/1 35/2/1 39/2/1
f 43/1/1 40/1/1 39/1/1
f 44/1/1 40/1/1 43/1/1
f 46/6/1 42/6/1 41/6/1
f 47/6/1 42/6/1 46/6/1
f 48/1/1 45/1/1 44/1/1
f 49/1/1 45/1/1 48/1/1
f 52/3/1 51/3/1 50/3/1
f 53/3/1 52/3/1 50/3/1
f 54/3/1 53/3/1 50/3/1
f 55/3/1 53/3/1 54/3/1
f 58/1/1 57/1/1 56/1/1
f 59/1/1 57/1/1 58/1/1
f 60/1/2 61/1/2 62/1/2
f 62/1/2 61/1/2 63/1/2
f 64/2/2 65/2/2 66/2/2
f 64/2/2 66/2/2 68/2/2
f 66/2/2 67/2/2 68/2/2
f 68/2/2 67/2/2 69/2/2
f 69/2/2 67/2/2 72/2/2
f 70/3/2 71/3/2 73/3/2
f 73/3/2 71/3/2 74/3/2
f 72/2/2 67/2/2 75/2/2
f 75/2/2 67/2/2 76/2/2
f 75/1/2 76/1/2 79/1/2
f 79/1/2 76/1/2 80/1/2
f 77/6/2 78/6/2 82/6/2
f 82/6/2 78/6/2 83/6/2
f 80/1/2 81/1/2 84/1/2
f 84/1/2 81/1/2 85/1/2
f 86/6/2 87/6/2 89/6/2
f 89/6/2 87/6/2 90/6/2
f 88/3/2 89/3/2 91/3/2
f 91/3/2 89/3/2 92/3/2
f 93/3/2 94/3/2 95/3/2
f 95/3/2 94/3/2 96/3/2
f 97/4/2 98/4/2 100/4/2
f 98/1/2 99/1/2 101/1/2
f 100/4/2 98/4/2 101/4/2
f 101/1/2 99/1/2 102/1/2
f 103/6/2 104/6/2 108/6/2
f 105/6/2 106/6/2 109/6/2
f 104/5/2 105/5/2 109/5/2
f 109/6/2 106/6/2 110/6/2
f 107/5/2 108/5/2 111/5/2
f 108/6/2 104/6/2 112/6/2
f 111/5/2 108/5/2 112/5/2
f 104/5/2 109/5/2 113/5/2
f 112/6/2 104/6/2 113/6/2
f 109/5/2 110/5/2 113/5/2
f 110/6/2 106/6/2 114/6/2
f 113/5/2 110/5/2 114/5/2
f 114/6/2 106/6/2 115/6/2
f 112/6/2 113/6/2 116/6/2
f 111/6/2 112/6/2 116/6/2
f 114/5/2 115/5/2 116/5/2
f 113/6/2 114/6/2 116/6/2
f 116/5/2 115/5/2 117/5/2
f 111/6/2 116/6/2 118/6/2
f 116/6/2 117/6/2 118/6/2
f 118/6/2 117/6/2 119/6/2
f 119/6/2 117/6/2 120/6/2
f 120/6/2 117/6/2 121/6/2
f 119/4/2 120/4/2 122/4/2
f 122/4/2 120/4/2 123/4/2
f 126/3/3 125/3/3 124/3/3
f 127/3/3 125/3/3 126/3/3
f 128/3/3 126/3/3 124/3/3
f 129/3/3 126/3/3 128/3/3
f 130/3/3 125/3/3 127/3/3
f 131/3/3 125/3/3 130/3/3
f 136/5/3 133/5/3 132/5/3
f 137/6/3 136/6/3 135/6/3
f 138/5/3 133/5/3 136/5/3
f 138/6/3 136/6/3 137/6/3
f 139/6/3 134/6/3 133/6/3
f 139/5/3 133/5/3 138/5/3
f 140/6/3 134/6/3 139/6/3
f 141/6/3 134/6/3 140/6/3
f 143/4/3 138/4/3 137/4/3
f 143/6/3 139/6/3 138/6/3
f 144/5/3 140/5/3 139/5/3
f 144/6/3 139/6/3 143/6/3
f 145/6/3 142/6/3 141/6/3
f 145/5/3 140/5/3 144/5/3
f 145/6/3 141/6/3 140/6/3
f 146/6/3 142/6/3 145/6/3
f 147/4/3 143/4/3 137/4/3
f 148/4/3 143/4/3 147/4/3
f 151/6/3 142/6/3 146/6/3
f 152/6/3 142/6/3 151/6/3
f 153/6/3 148/6/3 147/6/3
f 154/6/3 148/6/3 153/6/3
f 155/4/3 150/4/3 149/4/3
f 156/4/3 150/4/3 155/4/3
f 158/5/3 155/5/3 154/5/3
f 159/6/3 157/6/3 156/6/3
f 159/5/3 155/5/3 158/5/3
f 159/6/3 156/6/3 155/6/3
f 160/6/3 157/6/3 159/6/3
f 165/6/3 162/6/3 161/6/3
f 166/6/3 162/6/3 165/6/3
f 167/6/3 164/6/3 163/6/3
f 168/6/3 164/6/3 167/6/3
f 173/4/3 170/4/3 169/4/3
f 174/6/3 172/6/3 171/6/3
f 175/6/3 172/6/3 174/6/3
f 176/4/3 170/4/3 173/4/3
f 177/4/3 170/4/3 176/4/3
f 180/2/3 179/2/3 178/2/3
f 181/2/3 179/2/3 180/2/3
f 184/1/3 183/1/3 182/1/3
f 185/1/3 183/1/3 184/1/3
f 186/6/4 187/6/4 188/6/4
f 188/6/4 187/6/4 189/6/4
f 190/4/4 191/4/4 192/4/4
f 192/4/4 191/4/4 193/4/4
f 194/6/4 195/6/4 198/6/4
f 195/5/4 196/5/4 199/5/4
f 198/6/4 195/6/4 199/6/4
f 196/6/4 197/6/4 200/6/4
f 199/5/4 196/5/4 200/5/4
f 200/6/4 197/6/4 201/6/4
f 194/6/4 198/6/4 202/6/4
f 198/5/4 199/5/4 203/5/4
f 202/6/4 198/6/4 203/6/4
f 199/6/4 200/6/4 204/6/4
f 203/5/4 199/5/4 204/5/4
f 200/6/4 201/6/4 204/6/4
f 204/6/4 201/6/4 205/6/4
f 205/6/4 201/6/4 206/6/4
f 206/6/4 207/6/4 208/6/4
f 208/6/4 207/6/4 209/6/4
f 208/4/4 209/4/4 214/4/4
f 214/4/4 209/4/4 215/4/4
f 210/6/4 211/6/4 216/6/4
f 211/5/4 212/5/4 216/5/4
f 212/4/4 213/4/4 217/4/4
f 216/5/4 212/5/4 217/5/4
f 213/4/4 214/4/4 217/4/4
f 217/4/4 214/4/4 218/4/4
f 218/4/4 214/4/4 219/4/4
f 210/6/4 216/6/4 220/6/4
f 216/6/4 217/6/4 220/6/4
f 217/5/4 218/5/4 221/5/4
f 220/6/4 217/6/4 221/6/4
f 218/6/4 219/6/4 222/6/4
f 221/5/4 218/5/4 222/5/4
f 222/6/4 219/6/4 223/6/4
f 224/2/4 225/2/4 226/2/4
f 226/2/4 225/2/4 227/2/4
f 228/1/4 229/1/4 232/1/4
f 232/1/4 229/1/4 233/1/4
f 230/2/4 231/2/4 234/2/4
f 231/1/4 232/1/4 235/1/4
f 234/2/4 231/2/4 235/2/4
f 235/1/4 232/1/4 236/1/4
f 236/1/4 237/1/4 238/1/4
f 238/1/4 237/1/4 239/1/4
f 240/1/4 241/1/4 242/1/4
f 242/1/4 241/1/4 243/1/4
f 246/2/5 245/2/5 244/2/5
f 247/2/5 245/2/5 246/2/5
f 250/2/5 249/2/5 248/2/5
f 251/2/5 249/2/5 250/2/5
f 257/6/5 253/6/5 252/6/5
f 258/4/5 254/4/5 253/4/5
f 258/6/5 253/6/5 257/6/5
f 259/6/5 255/6/5 254/6/5
f 259/4/5 254/4/5 258/4/5
f 260/6/5 255/6/5 259/6/5
f 262/6/5 258/6/5 257/6/5
f 262/6/5 261/6/5 260/6/5
f 262/6/5 260/6/5 259/6/5
f 262/6/5 259/6/5 258/6/5
f 262/6/5 257/6/5 256/6/5
f 263/6/5 261/6/5 262/6/5
f 264/6/5 261/6/5 263/6/5
f 265/6/5 261/6/5 264/6/5
f 266/5/5 263/5/5 262/5/5
f 267/6/5 264/6/5 263/6/5
f 267/5/5 263/5/5 266/5/5
f 268/5/5 265/5/5 264/5/5
f 268/6/5 264/6/5 267/6/5
f 269/5/5 265/5/5 268/5/5
f 270/6/5 267/6/5 266/6/5
f 270/6/5 268/6/5 267/6/5
f 270/6/5 269/6/5 268/6/5
f 271/6/5 269/6/5 270/6/5
f 272/6/5 270/6/5 266/6/5
f 273/4/5 271/4/5 270/4/5
f 273/6/5 270/6/5 272/6/5
f 274/6/5 269/6/5 271/6/5
f 274/4/5 271/4/5 273/4/5
f 275/6/5 269/6/5 274/6/5
f 280/3/5 277/3/5 276/3/5
f 281/3/5 277/3/5 280/3/5
f 282/3/5 277/3/5 281/3/5
f 284/5/5 279/5/5 278/5/5
f 285/5/5 279/5/5 284/5/5
f 286/5/5 283/5/5 282/5/5
f 287/5/5 283/5/5 286/5/5
f 290/3/5 289/3/5 288/3/5
f 291/3/5 289/3/5 290/3/5
f 296/1/5 293/1/5 292/1/5
f 297/1/5 293/1/5 296/1/5
f 298/1/5 295/1/5 294/1/5
f 299/1/5 295/1/5 298/1/5
f 300/1/5 298/1/5 297/1/5
f 301/1/5 298/1/5 300/1/5
f 302/3/6 303/3/6 304/3/6
f 304/3/6 303/3/6 305/3/6
f 306/3/6 307/3/6 310/3/6
f 310/3/6 307/3/6 311/3/6
f 311/3/6 307/3/6 312/3/6
f 308/6/6 309/6/6 314/6/6
f 314/6/6 309/6/6 315/6/6
f 311/4/6 312/4/6 316/4/6
f 312/6/6 313/6/6 317/6/6
f 316/4/6 312/4/6 317/4/6
f 317/6/6 313/6/6 318/6/6
f 319/6/6 320/6/6 323/6/6
f 323/6/6 320/6/6 324/6/6
f 321/6/6 322/6/6 328/6/6
f 328/6/6 322/6/6 329/6/6
f 326/1/6 327/1/6 330/1/6
f 325/1/6 326/1/6 330/1/6
f 330/1/6 327/1/6 331/1/6
f 332/6/6 333/6/6 335/6/6
f 335/6/6 333/6/6 336/6/6
f 334/6/6 335/6/6 338/6/6
f 335/6/6 336/6/6 338/6/6
f 338/6/6 336/6/6 339/6/6
f 339/6/6 336/6/6 340/6/6
f 340/6/6 336/6/6 341/6/6
f 336/4/6 337/4/6 342/4/6
f 341/6/6 336/6/6 342/6/6
f 342/4/6 337/4/6 343/4/6
f 343/4/6 337/4/6 344/4/6
f 339/5/6 340/5/6 345/5/6
f 340/6/6 341/6/6 346/6/6
f 345/5/6 340/5/6 346/5/6
f 342/4/6 343/4/6 347/4/6
f 346/6/6 341/6/6 347/6/6
f 341/4/6 342/4/6 347/4/6
f 347/4/6 343/4/6 348/4/6
f 348/4/6 343/4/6 349/4/6
f 345/1/6 346/1/6 350/1/6
f 350/1/6 346/1/6 351/1/6
f 348/1/6 349/1/6 352/1/6
f 352/1/6 349/1/6 353/1/6
f 351/1/6 352/1/6 354/1/6
f 354/1/6 352/1/6 355/1/6
