# MagicaVoxel @ Ephtracy

# group
o L_ForeArm-3

# material
mtllib RPGCharacters_Source-6-L_ForeArm-3.mtl
usemtl palette

# normals
vn -1 0 0
vn 1 0 0
vn 0 0 1
vn 0 0 -1
vn 0 -1 0
vn 0 1 0

# texcoords
vt 0.880859 0.5
vt 0.884766 0.5
vt 0.896484 0.5
vt 0.900391 0.5

# verts
v -0.3 -0.1 0.1
v -0.3 -0.1 0
v -0.3 0 0
v -0.3 0 -0.1
v -0.3 0.1 0.1
v -0.3 0.1 -0.1
v -0.2 -0.1 0
v -0.2 -0.1 -0.1
v -0.2 0 0
v -0.2 0 -0.1
v -0.1 -0.2 0.1
v -0.1 -0.2 -0.1
v -0.1 -0.1 0.2
v -0.1 -0.1 0.1
v -0.1 -0.1 -0.1
v -0.1 -0.1 -0.2
v -0.1 0.1 0.2
v -0.1 0.1 0.1
v -0.1 0.1 -0.1
v -0.1 0.1 -0.2
v -0.1 0.2 0.1
v -0.1 0.2 -0.1
v 0 -0.2 0.1
v 0 -0.2 -0.1
v 0 -0.1 0.2
v 0 -0.1 0.1
v 0 -0.1 -0.1
v 0 -0.1 -0.2
v 0 0.1 0.2
v 0 0.1 0.1
v 0 0.1 -0.1
v 0 0.1 -0.2
v 0 0.2 0.1
v 0 0.2 -0.1
v 0.3 -0.1 0.1
v 0.3 -0.1 -0.1
v 0.3 0.1 0.1
v 0.3 0.1 -0.1
v -0.1 -0.1 0.2
v -0.1 0.1 0.2
v 0 -0.1 0.2
v 0 0.1 0.2
v -0.3 -0.1 0.1
v -0.3 0.1 0.1
v -0.1 -0.2 0.1
v -0.1 -0.1 0.1
v -0.1 0.1 0.1
v -0.1 0.2 0.1
v 0 -0.2 0.1
v 0 -0.1 0.1
v 0 0.1 0.1
v 0 0.2 0.1
v 0.1 0 0.1
v 0.1 0.1 0.1
v 0.2 -0.1 0.1
v 0.2 0 0.1
v 0.2 0.1 0.1
v 0.3 -0.1 0.1
v 0.3 0.1 0.1
v -0.3 -0.1 0
v -0.3 0 0
v -0.2 -0.1 0
v -0.2 0 0
v -0.3 0 -0.1
v -0.3 0.1 -0.1
v -0.2 -0.1 -0.1
v -0.2 0 -0.1
v -0.1 -0.2 -0.1
v -0.1 -0.1 -0.1
v -0.1 0.1 -0.1
v -0.1 0.2 -0.1
v 0 -0.2 -0.1
v 0 -0.1 -0.1
v 0 0.1 -0.1
v 0 0.2 -0.1
v 0.1 0 -0.1
v 0.1 0.1 -0.1
v 0.2 -0.1 -0.1
v 0.2 0 -0.1
v 0.2 0.1 -0.1
v 0.3 -0.1 -0.1
v 0.3 0.1 -0.1
v -0.1 -0.1 -0.2
v -0.1 0.1 -0.2
v 0 -0.1 -0.2
v 0 0.1 -0.2
v -0.1 -0.2 0.1
v 0 -0.2 0.1
v -0.1 -0.2 -0.1
v 0 -0.2 -0.1
v -0.1 -0.1 0.2
v 0 -0.1 0.2
v -0.3 -0.1 0.1
v -0.1 -0.1 0.1
v 0 -0.1 0.1
v 0.2 -0.1 0.1
v 0.3 -0.1 0.1
v -0.3 -0.1 0
v -0.2 -0.1 0
v -0.2 -0.1 -0.1
v -0.1 -0.1 -0.1
v 0 -0.1 -0.1
v 0.2 -0.1 -0.1
v 0.3 -0.1 -0.1
v -0.1 -0.1 -0.2
v 0 -0.1 -0.2
v -0.3 0 0
v -0.2 0 0
v -0.3 0 -0.1
v -0.2 0 -0.1
v -0.1 0.1 0.2
v 0 0.1 0.2
v -0.3 0.1 0.1
v -0.1 0.1 0.1
v 0 0.1 0.1
v 0.1 0.1 0.1
v 0.2 0.1 0.1
v 0.3 0.1 0.1
v -0.3 0.1 -0.1
v -0.1 0.1 -0.1
v 0 0.1 -0.1
v 0.1 0.1 -0.1
v 0.2 0.1 -0.1
v 0.3 0.1 -0.1
v -0.1 0.1 -0.2
v 0 0.1 -0.2
v -0.1 0.2 0.1
v 0 0.2 0.1
v -0.1 0.2 -0.1
v 0 0.2 -0.1

# faces
f 3/2/1 2/2/1 1/2/1
f 5/2/1 3/2/1 1/2/1
f 5/2/1 4/2/1 3/2/1
f 6/2/1 4/2/1 5/2/1
f 9/2/1 8/2/1 7/2/1
f 10/2/1 8/2/1 9/2/1
f 14/2/1 12/2/1 11/2/1
f 15/2/1 12/2/1 14/2/1
f 17/2/1 14/2/1 13/2/1
f 18/2/1 14/2/1 17/2/1
f 19/2/1 16/2/1 15/2/1
f 20/2/1 16/2/1 19/2/1
f 21/2/1 19/2/1 18/2/1
f 22/2/1 19/2/1 21/2/1
f 23/2/2 24/2/2 26/2/2
f 26/2/2 24/2/2 27/2/2
f 25/2/2 26/2/2 29/2/2
f 29/2/2 26/2/2 30/2/2
f 27/2/2 28/2/2 31/2/2
f 31/2/2 28/2/2 32/2/2
f 30/2/2 31/2/2 33/2/2
f 33/2/2 31/2/2 34/2/2
f 35/3/2 36/3/2 37/3/2
f 37/3/2 36/3/2 38/3/2
f 41/2/3 40/2/3 39/2/3
f 42/2/3 40/2/3 41/2/3
f 46/2/3 44/2/3 43/2/3
f 47/2/3 44/2/3 46/2/3
f 49/2/3 46/2/3 45/2/3
f 50/2/3 46/2/3 49/2/3
f 51/2/3 48/2/3 47/2/3
f 52/2/3 48/2/3 51/2/3
f 53/2/3 51/2/3 50/2/3
f 54/2/3 51/2/3 53/2/3
f 55/2/3 53/2/3 50/2/3
f 56/1/3 54/1/3 53/1/3
f 56/2/3 53/2/3 55/2/3
f 57/1/3 54/1/3 56/1/3
f 58/3/3 56/3/3 55/3/3
f 58/3/3 57/3/3 56/3/3
f 59/3/3 57/3/3 58/3/3
f 60/2/4 61/2/4 62/2/4
f 62/2/4 61/2/4 63/2/4
f 64/2/4 65/2/4 67/2/4
f 66/2/4 67/2/4 69/2/4
f 67/2/4 65/2/4 70/2/4
f 69/2/4 67/2/4 70/2/4
f 68/2/4 69/2/4 72/2/4
f 72/2/4 69/2/4 73/2/4
f 70/2/4 71/2/4 74/2/4
f 74/2/4 71/2/4 75/2/4
f 73/2/4 74/2/4 76/2/4
f 76/2/4 74/2/4 77/2/4
f 73/2/4 76/2/4 78/2/4
f 76/1/4 77/1/4 79/1/4
f 78/2/4 76/2/4 79/2/4
f 79/1/4 77/1/4 80/1/4
f 78/3/4 79/3/4 81/3/4
f 79/3/4 80/3/4 81/3/4
f 81/3/4 80/3/4 82/3/4
f 83/2/4 84/2/4 85/2/4
f 85/2/4 84/2/4 86/2/4
f 89/2/5 88/2/5 87/2/5
f 90/2/5 88/2/5 89/2/5
f 94/2/5 92/2/5 91/2/5
f 95/2/5 92/2/5 94/2/5
f 98/2/5 94/2/5 93/2/5
f 99/2/5 94/2/5 98/2/5
f 100/2/5 94/2/5 99/2/5
f 101/2/5 94/2/5 100/2/5
f 102/2/5 96/2/5 95/2/5
f 103/3/5 97/3/5 96/3/5
f 103/2/5 96/2/5 102/2/5
f 104/3/5 97/3/5 103/3/5
f 105/2/5 102/2/5 101/2/5
f 106/2/5 102/2/5 105/2/5
f 109/2/5 108/2/5 107/2/5
f 110/2/5 108/2/5 109/2/5
f 111/2/6 112/2/6 114/2/6
f 114/2/6 112/2/6 115/2/6
f 113/2/6 114/2/6 119/2/6
f 119/2/6 114/2/6 120/2/6
f 115/2/6 116/2/6 121/2/6
f 116/1/6 117/1/6 122/1/6
f 121/2/6 116/2/6 122/2/6
f 117/3/6 118/3/6 123/3/6
f 122/1/6 117/1/6 123/1/6
f 123/3/6 118/3/6 124/3/6
f 120/2/6 121/2/6 125/2/6
f 125/2/6 121/2/6 126/2/6
f 127/2/6 128/2/6 129/2/6
f 129/2/6 128/2/6 130/2/6
