# MagicaVoxel @ Ephtracy

# group
o Head-7

# material
mtllib RPGCharacters_Source-15-Head-7.mtl
usemtl palette

# normals
vn -1 0 0
vn 1 0 0
vn 0 0 1
vn 0 0 -1
vn 0 -1 0
vn 0 1 0

# texcoords
vt 0.728516 0.5
vt 0.884766 0.5
vt 0.888672 0.5
vt 0.912109 0.5
vt 0.927734 0.5

# verts
v -0.3 -0.25 0.2
v -0.3 -0.25 0.1
v -0.3 -0.25 0
v -0.3 0.05 0.3
v -0.3 0.05 0.2
v -0.3 0.05 0.1
v -0.3 0.05 0
v -0.3 0.05 -0.2
v -0.3 0.15 0.4
v -0.3 0.15 0.3
v -0.3 0.15 0.2
v -0.3 0.25 0.4
v -0.3 0.25 0.3
v -0.3 0.25 -0.1
v -0.3 0.25 -0.2
v -0.3 0.35 0.3
v -0.3 0.35 -0.1
v -0.2 -0.35 0.1
v -0.2 -0.35 0
v -0.2 -0.35 -0.2
v -0.2 -0.25 0.1
v -0.2 -0.25 0
v -0.2 -0.25 -0.1
v -0.2 -0.25 -0.2
v -0.2 -0.25 -0.3
v -0.2 -0.05 0
v -0.2 -0.05 -0.1
v -0.2 0.05 0
v -0.2 0.05 -0.2
v -0.2 0.05 -0.3
v -0.2 0.25 0.4
v -0.2 0.25 0.3
v -0.2 0.25 -0.1
v -0.2 0.25 -0.2
v -0.2 0.25 -0.3
v -0.2 0.35 0.4
v -0.2 0.35 0.3
v -0.2 0.35 -0.1
v -0.2 0.35 -0.2
v -0.1 -0.35 0.2
v -0.1 -0.35 0.1
v -0.1 -0.25 0.2
v -0.1 -0.25 0.1
v -0.1 -0.05 -0.3
v -0.1 -0.05 -0.4
v -0.1 0.05 -0.3
v -0.1 0.15 -0.3
v -0.1 0.15 -0.4
v 0.2 0.05 0.3
v 0.2 0.05 0.2
v 0.2 0.15 0.4
v 0.2 0.15 0.3
v 0.2 0.15 0.2
v 0.2 0.25 0.4
v 0.2 0.25 0.3
v 0.2 0.25 0.2
v -0.2 0.05 0.3
v -0.2 0.05 0.2
v -0.2 0.15 0.4
v -0.2 0.15 0.3
v -0.2 0.15 0.2
v -0.2 0.25 0.4
v -0.2 0.25 0.3
v -0.2 0.25 0.2
v 0.1 -0.35 0.2
v 0.1 -0.35 0.1
v 0.1 -0.25 0.2
v 0.1 -0.25 0.1
v 0.1 -0.05 -0.3
v 0.1 -0.05 -0.4
v 0.1 0.05 -0.3
v 0.1 0.15 -0.3
v 0.1 0.15 -0.4
v 0.2 -0.35 0.1
v 0.2 -0.35 0
v 0.2 -0.35 -0.2
v 0.2 -0.25 0.1
v 0.2 -0.25 0
v 0.2 -0.25 -0.1
v 0.2 -0.25 -0.2
v 0.2 -0.25 -0.3
v 0.2 -0.05 0
v 0.2 -0.05 -0.1
v 0.2 0.05 0
v 0.2 0.05 -0.2
v 0.2 0.05 -0.3
v 0.2 0.25 0.4
v 0.2 0.25 0.3
v 0.2 0.25 -0.1
v 0.2 0.25 -0.2
v 0.2 0.25 -0.3
v 0.2 0.35 0.4
v 0.2 0.35 0.3
v 0.2 0.35 -0.1
v 0.2 0.35 -0.2
v 0.3 -0.25 0.2
v 0.3 -0.25 0.1
v 0.3 -0.25 0
v 0.3 0.05 0.3
v 0.3 0.05 0.2
v 0.3 0.05 0.1
v 0.3 0.05 0
v 0.3 0.05 -0.2
v 0.3 0.15 0.4
v 0.3 0.15 0.3
v 0.3 0.15 0.2
v 0.3 0.25 0.4
v 0.3 0.25 0.3
v 0.3 0.25 -0.1
v 0.3 0.25 -0.2
v 0.3 0.35 0.3
v 0.3 0.35 -0.1
v -0.3 0.15 0.4
v -0.3 0.25 0.4
v -0.2 0.15 0.4
v -0.2 0.25 0.4
v -0.2 0.35 0.4
v 0.2 0.15 0.4
v 0.2 0.25 0.4
v 0.2 0.35 0.4
v 0.3 0.15 0.4
v 0.3 0.25 0.4
v -0.3 0.05 0.3
v -0.3 0.15 0.3
v -0.3 0.25 0.3
v -0.3 0.35 0.3
v -0.2 0.05 0.3
v -0.2 0.15 0.3
v -0.2 0.25 0.3
v -0.2 0.35 0.3
v 0.2 0.05 0.3
v 0.2 0.15 0.3
v 0.2 0.25 0.3
v 0.2 0.35 0.3
v 0.3 0.05 0.3
v 0.3 0.15 0.3
v 0.3 0.25 0.3
v 0.3 0.35 0.3
v -0.3 -0.25 0.2
v -0.3 0.05 0.2
v -0.2 -0.25 0.2
v -0.2 0.05 0.2
v -0.2 0.15 0.2
v -0.2 0.25 0.2
v -0.1 -0.35 0.2
v -0.1 -0.25 0.2
v -0.1 0.05 0.2
v -0.1 0.15 0.2
v 0 0.15 0.2
v 0 0.25 0.2
v 0.1 -0.35 0.2
v 0.1 -0.25 0.2
v 0.1 0.05 0.2
v 0.1 0.15 0.2
v 0.2 -0.25 0.2
v 0.2 0.05 0.2
v 0.2 0.15 0.2
v 0.2 0.25 0.2
v 0.3 -0.25 0.2
v 0.3 0.05 0.2
v -0.2 -0.35 0.1
v -0.2 -0.25 0.1
v -0.1 -0.35 0.1
v -0.1 -0.25 0.1
v 0.1 -0.35 0.1
v 0.1 -0.25 0.1
v 0.2 -0.35 0.1
v 0.2 -0.25 0.1
v -0.3 -0.25 0
v -0.3 0.05 0
v -0.2 -0.25 0
v -0.2 -0.05 0
v -0.2 0.05 0
v 0.2 -0.25 0
v 0.2 -0.05 0
v 0.2 0.05 0
v 0.3 -0.25 0
v 0.3 0.05 0
v -0.3 0.25 -0.1
v -0.3 0.35 -0.1
v -0.2 0.25 -0.1
v -0.2 0.35 -0.1
v 0.2 0.25 -0.1
v 0.2 0.35 -0.1
v 0.3 0.25 -0.1
v 0.3 0.35 -0.1
v -0.3 0.05 -0.2
v -0.3 0.25 -0.2
v -0.2 -0.35 -0.2
v -0.2 -0.25 -0.2
v -0.2 0.05 -0.2
v -0.2 0.25 -0.2
v -0.2 0.35 -0.2
v 0.2 -0.35 -0.2
v 0.2 -0.25 -0.2
v 0.2 0.05 -0.2
v 0.2 0.25 -0.2
v 0.2 0.35 -0.2
v 0.3 0.05 -0.2
v 0.3 0.25 -0.2
v -0.2 -0.25 -0.3
v -0.2 0.05 -0.3
v -0.2 0.25 -0.3
v -0.1 -0.05 -0.3
v -0.1 0.05 -0.3
v -0.1 0.15 -0.3
v 0.1 -0.05 -0.3
v 0.1 0.05 -0.3
v 0.1 0.15 -0.3
v 0.2 -0.25 -0.3
v 0.2 0.05 -0.3
v 0.2 0.25 -0.3
v -0.1 -0.05 -0.4
v -0.1 0.15 -0.4
v 0.1 -0.05 -0.4
v 0.1 0.15 -0.4
v -0.1 -0.35 0.2
v 0.1 -0.35 0.2
v -0.2 -0.35 0.1
v -0.1 -0.35 0.1
v 0.1 -0.35 0.1
v 0.2 -0.35 0.1
v -0.2 -0.35 0
v -0.1 -0.35 0
v 0.1 -0.35 0
v 0.2 -0.35 0
v -0.2 -0.35 -0.2
v 0.2 -0.35 -0.2
v -0.3 -0.25 0.2
v -0.2 -0.25 0.2
v -0.1 -0.25 0.2
v 0.1 -0.25 0.2
v 0.2 -0.25 0.2
v 0.3 -0.25 0.2
v -0.3 -0.25 0.1
v -0.2 -0.25 0.1
v -0.1 -0.25 0.1
v 0.1 -0.25 0.1
v 0.2 -0.25 0.1
v 0.3 -0.25 0.1
v -0.3 -0.25 0
v -0.2 -0.25 0
v 0.2 -0.25 0
v 0.3 -0.25 0
v -0.2 -0.25 -0.2
v 0.2 -0.25 -0.2
v -0.2 -0.25 -0.3
v 0.2 -0.25 -0.3
v -0.1 -0.05 -0.3
v 0.1 -0.05 -0.3
v -0.1 -0.05 -0.4
v 0.1 -0.05 -0.4
v -0.3 0.05 0.3
v -0.2 0.05 0.3
v 0.2 0.05 0.3
v 0.3 0.05 0.3
v -0.3 0.05 0.2
v -0.2 0.05 0.2
v 0.2 0.05 0.2
v 0.3 0.05 0.2
v -0.3 0.05 0
v -0.2 0.05 0
v 0.2 0.05 0
v 0.3 0.05 0
v -0.3 0.05 -0.2
v -0.2 0.05 -0.2
v 0.2 0.05 -0.2
v 0.3 0.05 -0.2
v -0.3 0.15 0.4
v -0.2 0.15 0.4
v 0.2 0.15 0.4
v 0.3 0.15 0.4
v -0.3 0.15 0.3
v -0.2 0.15 0.3
v 0.2 0.15 0.3
v 0.3 0.15 0.3
v -0.2 0.25 0.4
v 0.2 0.25 0.4
v -0.2 0.25 0.3
v 0.2 0.25 0.3
v -0.2 0.25 0.2
v 0 0.25 0.2
v 0.2 0.25 0.2
v -0.1 0.15 -0.3
v 0.1 0.15 -0.3
v -0.1 0.15 -0.4
v 0.1 0.15 -0.4
v -0.3 0.25 0.4
v -0.2 0.25 0.4
v 0.2 0.25 0.4
v 0.3 0.25 0.4
v -0.3 0.25 0.3
v -0.2 0.25 0.3
v 0.2 0.25 0.3
v 0.3 0.25 0.3
v -0.3 0.25 -0.1
v -0.2 0.25 -0.1
v 0.2 0.25 -0.1
v 0.3 0.25 -0.1
v -0.3 0.25 -0.2
v -0.2 0.25 -0.2
v 0.2 0.25 -0.2
v 0.3 0.25 -0.2
v -0.2 0.25 -0.3
v 0.2 0.25 -0.3
v -0.2 0.35 0.4
v 0.2 0.35 0.4
v -0.3 0.35 0.3
v -0.2 0.35 0.3
v 0.2 0.35 0.3
v 0.3 0.35 0.3
v -0.3 0.35 -0.1
v -0.2 0.35 -0.1
v 0.2 0.35 -0.1
v 0.3 0.35 -0.1
v -0.2 0.35 -0.2
v 0.2 0.35 -0.2

# faces
f 5/4/1 2/4/1 1/4/1
f 6/2/1 3/2/1 2/2/1
f 6/4/1 2/4/1 5/4/1
f 7/2/1 3/2/1 6/2/1
f 10/4/1 5/4/1 4/4/1
f 11/2/1 8/2/1 7/2/1
f 11/2/1 6/2/1 5/2/1
f 11/4/1 5/4/1 10/4/1
f 11/2/1 7/2/1 6/2/1
f 12/4/1 10/4/1 9/4/1
f 13/2/1 11/2/1 10/2/1
f 13/4/1 10/4/1 12/4/1
f 14/2/1 8/2/1 11/2/1
f 14/2/1 11/2/1 13/2/1
f 15/2/1 8/2/1 14/2/1
f 16/2/1 14/2/1 13/2/1
f 17/2/1 14/2/1 16/2/1
f 21/4/1 19/4/1 18/4/1
f 22/5/1 20/5/1 19/5/1
f 22/4/1 19/4/1 21/4/1
f 23/5/1 20/5/1 22/5/1
f 24/5/1 20/5/1 23/5/1
f 26/3/1 23/3/1 22/3/1
f 27/5/1 25/5/1 24/5/1
f 27/3/1 23/3/1 26/3/1
f 27/5/1 24/5/1 23/5/1
f 28/5/1 27/5/1 26/5/1
f 29/5/1 25/5/1 27/5/1
f 29/5/1 27/5/1 28/5/1
f 30/5/1 25/5/1 29/5/1
f 34/2/1 30/2/1 29/2/1
f 35/2/1 30/2/1 34/2/1
f 36/4/1 32/4/1 31/4/1
f 37/4/1 32/4/1 36/4/1
f 38/2/1 34/2/1 33/2/1
f 39/2/1 34/2/1 38/2/1
f 42/3/1 41/3/1 40/3/1
f 43/3/1 41/3/1 42/3/1
f 46/2/1 45/2/1 44/2/1
f 47/2/1 45/2/1 46/2/1
f 48/2/1 45/2/1 47/2/1
f 52/4/1 50/4/1 49/4/1
f 53/4/1 50/4/1 52/4/1
f 54/4/1 52/4/1 51/4/1
f 55/2/1 53/2/1 52/2/1
f 55/4/1 52/4/1 54/4/1
f 56/2/1 53/2/1 55/2/1
f 57/4/2 58/4/2 60/4/2
f 60/4/2 58/4/2 61/4/2
f 59/4/2 60/4/2 62/4/2
f 60/2/2 61/2/2 63/2/2
f 62/4/2 60/4/2 63/4/2
f 63/2/2 61/2/2 64/2/2
f 65/3/2 66/3/2 67/3/2
f 67/3/2 66/3/2 68/3/2
f 69/2/2 70/2/2 71/2/2
f 71/2/2 70/2/2 72/2/2
f 72/2/2 70/2/2 73/2/2
f 74/4/2 75/4/2 77/4/2
f 75/5/2 76/5/2 78/5/2
f 77/4/2 75/4/2 78/4/2
f 78/5/2 76/5/2 79/5/2
f 79/5/2 76/5/2 80/5/2
f 78/3/2 79/3/2 82/3/2
f 80/5/2 81/5/2 83/5/2
f 82/3/2 79/3/2 83/3/2
f 79/5/2 80/5/2 83/5/2
f 82/5/2 83/5/2 84/5/2
f 83/5/2 81/5/2 85/5/2
f 84/5/2 83/5/2 85/5/2
f 85/5/2 81/5/2 86/5/2
f 85/2/2 86/2/2 90/2/2
f 90/2/2 86/2/2 91/2/2
f 87/4/2 88/4/2 92/4/2
f 92/4/2 88/4/2 93/4/2
f 89/2/2 90/2/2 94/2/2
f 94/2/2 90/2/2 95/2/2
f 96/4/2 97/4/2 100/4/2
f 97/2/2 98/2/2 101/2/2
f 100/4/2 97/4/2 101/4/2
f 101/2/2 98/2/2 102/2/2
f 99/4/2 100/4/2 105/4/2
f 102/2/2 103/2/2 106/2/2
f 100/2/2 101/2/2 106/2/2
f 105/4/2 100/4/2 106/4/2
f 101/2/2 102/2/2 106/2/2
f 104/4/2 105/4/2 107/4/2
f 105/2/2 106/2/2 108/2/2
f 107/4/2 105/4/2 108/4/2
f 106/2/2 103/2/2 109/2/2
f 108/2/2 106/2/2 109/2/2
f 109/2/2 103/2/2 110/2/2
f 108/2/2 109/2/2 111/2/2
f 111/2/2 109/2/2 112/2/2
f 115/4/3 114/4/3 113/4/3
f 116/4/3 114/4/3 115/4/3
f 119/4/3 117/4/3 116/4/3
f 120/4/3 117/4/3 119/4/3
f 121/4/3 119/4/3 118/4/3
f 122/4/3 119/4/3 121/4/3
f 127/4/3 124/4/3 123/4/3
f 128/4/3 124/4/3 127/4/3
f 129/2/3 126/2/3 125/2/3
f 130/2/3 126/2/3 129/2/3
f 135/4/3 132/4/3 131/4/3
f 136/4/3 132/4/3 135/4/3
f 137/2/3 134/2/3 133/2/3
f 138/2/3 134/2/3 137/2/3
f 141/4/3 140/4/3 139/4/3
f 142/4/3 140/4/3 141/4/3
f 146/3/3 142/3/3 141/3/3
f 146/3/3 144/3/3 143/3/3
f 146/3/3 143/3/3 142/3/3
f 147/3/3 144/3/3 146/3/3
f 148/3/3 144/3/3 147/3/3
f 149/5/3 148/5/3 147/5/3
f 149/3/3 144/3/3 148/3/3
f 150/3/3 144/3/3 149/3/3
f 151/3/3 146/3/3 145/3/3
f 151/3/3 147/3/3 146/3/3
f 152/3/3 147/3/3 151/3/3
f 153/5/3 150/5/3 149/5/3
f 153/3/3 147/3/3 152/3/3
f 153/5/3 149/5/3 147/5/3
f 154/5/3 150/5/3 153/5/3
f 155/3/3 153/3/3 152/3/3
f 155/3/3 154/3/3 153/3/3
f 156/3/3 154/3/3 155/3/3
f 157/5/3 150/5/3 154/5/3
f 157/3/3 154/3/3 156/3/3
f 158/5/3 150/5/3 157/5/3
f 159/4/3 156/4/3 155/4/3
f 160/4/3 156/4/3 159/4/3
f 163/4/3 162/4/3 161/4/3
f 164/4/3 162/4/3 163/4/3
f 167/4/3 166/4/3 165/4/3
f 168/4/3 166/4/3 167/4/3
f 169/2/4 170/2/4 171/2/4
f 171/2/4 170/2/4 172/2/4
f 172/2/4 170/2/4 173/2/4
f 174/2/4 175/2/4 177/2/4
f 175/2/4 176/2/4 177/2/4
f 177/2/4 176/2/4 178/2/4
f 179/2/4 180/2/4 181/2/4
f 181/2/4 180/2/4 182/2/4
f 183/2/4 184/2/4 185/2/4
f 185/2/4 184/2/4 186/2/4
f 187/2/4 188/2/4 191/2/4
f 191/2/4 188/2/4 192/2/4
f 189/5/4 190/5/4 194/5/4
f 194/5/4 190/5/4 195/5/4
f 192/2/4 193/2/4 197/2/4
f 197/2/4 193/2/4 198/2/4
f 196/2/4 197/2/4 199/2/4
f 199/2/4 197/2/4 200/2/4
f 201/5/4 202/5/4 204/5/4
f 202/2/4 203/2/4 205/2/4
f 204/5/4 202/5/4 205/5/4
f 205/2/4 203/2/4 206/2/4
f 201/5/4 204/5/4 207/5/4
f 206/2/4 203/2/4 209/2/4
f 207/5/4 208/5/4 210/5/4
f 201/5/4 207/5/4 210/5/4
f 208/2/4 209/2/4 211/2/4
f 210/5/4 208/5/4 211/5/4
f 209/2/4 203/2/4 212/2/4
f 211/2/4 209/2/4 212/2/4
f 213/2/4 214/2/4 215/2/4
f 215/2/4 214/2/4 216/2/4
f 220/3/5 218/3/5 217/3/5
f 221/3/5 218/3/5 220/3/5
f 223/4/5 220/4/5 219/4/5
f 224/2/5 221/2/5 220/2/5
f 224/4/5 220/4/5 223/4/5
f 225/4/5 222/4/5 221/4/5
f 225/2/5 221/2/5 224/2/5
f 226/4/5 222/4/5 225/4/5
f 227/5/5 224/5/5 223/5/5
f 227/5/5 225/5/5 224/5/5
f 227/5/5 226/5/5 225/5/5
f 228/5/5 226/5/5 227/5/5
f 235/4/5 230/4/5 229/4/5
f 236/3/5 231/3/5 230/3/5
f 236/4/5 230/4/5 235/4/5
f 237/3/5 231/3/5 236/3/5
f 238/3/5 233/3/5 232/3/5
f 239/4/5 234/4/5 233/4/5
f 239/3/5 233/3/5 238/3/5
f 240/4/5 234/4/5 239/4/5
f 241/2/5 236/2/5 235/2/5
f 242/2/5 236/2/5 241/2/5
f 243/2/5 240/2/5 239/2/5
f 244/2/5 240/2/5 243/2/5
f 247/5/5 246/5/5 245/5/5
f 248/5/5 246/5/5 247/5/5
f 251/2/5 250/2/5 249/2/5
f 252/2/5 250/2/5 251/2/5
f 257/4/5 254/4/5 253/4/5
f 258/4/5 254/4/5 257/4/5
f 259/4/5 256/4/5 255/4/5
f 260/4/5 256/4/5 259/4/5
f 265/2/5 262/2/5 261/2/5
f 266/2/5 262/2/5 265/2/5
f 267/2/5 264/2/5 263/2/5
f 268/2/5 264/2/5 267/2/5
f 273/4/5 270/4/5 269/4/5
f 274/4/5 270/4/5 273/4/5
f 275/4/5 272/4/5 271/4/5
f 276/4/5 272/4/5 275/4/5
f 279/4/5 278/4/5 277/4/5
f 280/4/5 278/4/5 279/4/5
f 281/2/5 280/2/5 279/2/5
f 282/2/5 280/2/5 281/2/5
f 283/2/5 280/2/5 282/2/5
f 284/2/6 285/2/6 286/2/6
f 286/2/6 285/2/6 287/2/6
f 288/4/6 289/4/6 292/4/6
f 292/4/6 289/4/6 293/4/6
f 290/4/6 291/4/6 294/4/6
f 294/4/6 291/4/6 295/4/6
f 296/2/6 297/2/6 300/2/6
f 300/2/6 297/2/6 301/2/6
f 298/2/6 299/2/6 302/2/6
f 302/2/6 299/2/6 303/2/6
f 301/2/6 302/2/6 304/2/6
f 304/2/6 302/2/6 305/2/6
f 306/4/6 307/4/6 309/4/6
f 309/4/6 307/4/6 310/4/6
f 308/2/6 309/2/6 312/2/6
f 310/2/6 311/2/6 312/2/6
f 309/2/6 310/2/6 312/2/6
f 312/2/6 311/2/6 313/2/6
f 313/2/6 311/2/6 314/2/6
f 314/2/6 311/2/6 315/2/6
f 313/2/6 314/2/6 316/2/6
f 316/2/6 314/2/6 317/2/6
