<?xml version="1.0" standalone="no"?>
<!DOCTYPE svg PUBLIC "-//W3C//DTD SVG 20010904//EN"
 "http://www.w3.org/TR/2001/REC-SVG-20010904/DTD/svg10.dtd">
<svg version="1.0" xmlns="http://www.w3.org/2000/svg"
 width="512.000000pt" height="512.000000pt" viewBox="0 0 512.000000 512.000000"
 preserveAspectRatio="xMidYMid meet">
<metadata>
Created by potrace 1.14, written by Peter Selinger 2001-2017
</metadata>
<g transform="translate(0.000000,512.000000) scale(0.100000,-0.100000)"
fill="#000000" stroke="none">
<path d="M322 4628 c-19 -6 -55 -31 -82 -55 -79 -71 -82 -89 -78 -435 4 -326
3 -322 75 -392 63 -61 93 -66 398 -66 299 0 344 6 402 58 17 16 42 48 55 73
22 43 23 53 26 327 3 325 -2 361 -63 424 -72 73 -66 72 -400 75 -197 1 -311
-2 -333 -9z"/>
<path d="M1820 4463 c-84 -29 -143 -81 -186 -164 -26 -47 -29 -64 -28 -139 0
-68 5 -95 24 -134 30 -62 93 -125 155 -156 l50 -25 1525 0 1525 0 50 25 c64
32 124 92 155 155 35 73 35 199 0 270 -43 87 -109 142 -209 174 -23 8 -477 11
-1525 10 -1327 0 -1496 -2 -1536 -16z"/>
<path d="M335 3033 c-67 -16 -143 -94 -164 -168 -15 -56 -15 -565 1 -617 6
-22 32 -62 56 -89 67 -74 91 -79 417 -79 306 0 337 5 398 67 72 71 72 73 72
413 0 341 -1 344 -74 415 -60 59 -97 65 -410 64 -152 -1 -285 -3 -296 -6z"/>
<path d="M1820 2863 c-84 -29 -143 -81 -186 -164 -26 -47 -29 -64 -28 -139 0
-68 5 -95 24 -134 30 -62 93 -125 155 -156 l50 -25 1525 0 1525 0 50 25 c64
32 124 92 155 155 35 73 35 199 0 270 -43 87 -109 142 -209 174 -23 8 -477 11
-1525 10 -1327 0 -1496 -2 -1536 -16z"/>
<path d="M330 1428 c-70 -20 -130 -78 -155 -147 -12 -36 -15 -97 -15 -316 0
-327 5 -350 81 -419 71 -64 100 -68 429 -64 266 3 276 4 320 26 49 27 81 60
108 112 15 31 17 70 17 340 0 341 -1 344 -72 413 -64 63 -92 67 -402 66 -152
0 -292 -5 -311 -11z"/>
<path d="M1820 1263 c-84 -29 -143 -81 -186 -164 -26 -47 -29 -64 -28 -139 0
-68 5 -95 24 -134 30 -62 93 -125 155 -156 l50 -25 1525 0 1525 0 50 25 c64
32 124 92 155 155 35 73 35 199 0 270 -43 87 -109 142 -209 174 -23 8 -477 11
-1525 10 -1327 0 -1496 -2 -1536 -16z"/>
</g>
</svg>
