# MagicaVoxel @ Ephtracy

# group
o rLegUpper

# material
mtllib worker-1-rLegUpper.mtl
usemtl palette

# normals
vn -1 0 0
vn 1 0 0
vn 0 0 1
vn 0 0 -1
vn 0 -1 0
vn 0 1 0

# texcoords
vt 0.341797 0.5
vt 0.962891 0.5

# verts
v -0.55 -1.55 0.1
v -0.55 -1.55 -0.1
v -0.55 -1.35 -0.1
v -0.55 -1.35 -0.2
v -0.55 -0.45 -0.2
v -0.55 -0.45 -0.3
v -0.55 -0.15 0.1
v -0.55 -0.15 0
v -0.55 -0.05 -0.2
v -0.55 -0.05 -0.3
v -0.55 0.0500001 0
v -0.55 0.0500001 -0.2
v -0.45 -1.55 -0.1
v -0.45 -1.55 -0.2
v -0.45 -1.35 -0.1
v -0.45 -1.35 -0.2
v -0.45 -0.55 -0.2
v -0.45 -0.55 -0.3
v -0.45 -0.45 -0.2
v -0.45 -0.45 -0.3
v -0.45 -0.45 -0.4
v -0.45 -0.15 0.1
v -0.45 -0.15 0
v -0.45 -0.05 -0.2
v -0.45 -0.05 -0.3
v -0.45 -0.05 -0.4
v -0.45 0.0500001 0.1
v -0.45 0.0500001 0
v -0.45 0.0500001 -0.2
v -0.45 0.0500001 -0.3
v -0.35 -0.55 -0.3
v -0.35 -0.55 -0.4
v -0.35 -0.45 -0.3
v -0.35 -0.45 -0.4
v -0.25 -0.05 -0.3
v -0.25 -0.05 -0.4
v -0.25 0.0500001 -0.3
v -0.25 0.0500001 -0.4
v -0.25 -1.55 0.1
v -0.25 -1.55 0
v -0.25 -1.55 -0.1
v -0.25 -1.55 -0.2
v -0.25 -1.45 -0.1
v -0.25 -1.45 -0.2
v -0.25 -1.35 0.1
v -0.25 -1.35 0
v -0.15 -1.55 0
v -0.15 -1.55 -0.1
v -0.15 -1.45 -0.1
v -0.15 -1.45 -0.2
v -0.15 -1.35 0.1
v -0.15 -1.35 0
v -0.15 -0.55 0
v -0.15 -0.55 -0.2
v -0.15 -0.55 -0.3
v -0.15 -0.55 -0.4
v -0.15 -0.45 0.1
v -0.15 -0.45 0
v -0.15 -0.45 -0.3
v -0.15 -0.45 -0.4
v -0.05 -0.55 0
v -0.05 -0.55 -0.3
v -0.05 -0.45 0.1
v -0.05 -0.45 0
v -0.05 -0.45 -0.3
v -0.05 -0.45 -0.4
v -0.05 0.0500001 0.1
v -0.05 0.0500001 -0.4
v -0.55 -1.55 0.1
v -0.55 -0.15 0.1
v -0.45 -0.15 0.1
v -0.45 0.0500001 0.1
v -0.25 -1.55 0.1
v -0.25 -1.35 0.1
v -0.15 -1.35 0.1
v -0.15 -0.45 0.1
v -0.05 -0.45 0.1
v -0.05 0.0500001 0.1
v -0.55 -0.15 0
v -0.55 0.0500001 0
v -0.45 -0.15 0
v -0.45 0.0500001 0
v -0.25 -1.55 0
v -0.25 -1.35 0
v -0.15 -1.55 0
v -0.15 -1.35 0
v -0.15 -0.55 0
v -0.15 -0.45 0
v -0.05 -0.55 0
v -0.05 -0.45 0
v -0.55 -1.55 -0.1
v -0.55 -1.35 -0.1
v -0.45 -1.55 -0.1
v -0.45 -1.35 -0.1
v -0.25 -1.55 -0.1
v -0.25 -1.45 -0.1
v -0.15 -1.55 -0.1
v -0.15 -1.45 -0.1
v -0.55 -1.35 -0.2
v -0.55 -0.45 -0.2
v -0.55 -0.05 -0.2
v -0.55 0.0500001 -0.2
v -0.45 -1.55 -0.2
v -0.45 -1.35 -0.2
v -0.45 -0.55 -0.2
v -0.45 -0.45 -0.2
v -0.45 -0.05 -0.2
v -0.45 0.0500001 -0.2
v -0.25 -1.55 -0.2
v -0.25 -1.45 -0.2
v -0.15 -1.45 -0.2
v -0.15 -0.55 -0.2
v -0.55 -0.45 -0.3
v -0.55 -0.05 -0.3
v -0.45 -0.55 -0.3
v -0.45 -0.45 -0.3
v -0.45 -0.05 -0.3
v -0.45 0.0500001 -0.3
v -0.35 -0.55 -0.3
v -0.35 -0.45 -0.3
v -0.25 -0.05 -0.3
v -0.25 0.0500001 -0.3
v -0.15 -0.55 -0.3
v -0.15 -0.45 -0.3
v -0.05 -0.55 -0.3
v -0.05 -0.45 -0.3
v -0.45 -0.45 -0.4
v -0.45 -0.05 -0.4
v -0.35 -0.55 -0.4
v -0.35 -0.45 -0.4
v -0.25 -0.05 -0.4
v -0.25 0.0500001 -0.4
v -0.15 -0.55 -0.4
v -0.15 -0.45 -0.4
v -0.05 -0.45 -0.4
v -0.05 0.0500001 -0.4
v -0.55 -1.55 0.1
v -0.25 -1.55 0.1
v -0.45 -1.55 0
v -0.35 -1.55 0
v -0.25 -1.55 0
v -0.15 -1.55 0
v -0.55 -1.55 -0.1
v -0.45 -1.55 -0.1
v -0.35 -1.55 -0.1
v -0.25 -1.55 -0.1
v -0.15 -1.55 -0.1
v -0.45 -1.55 -0.2
v -0.25 -1.55 -0.2
v -0.25 -1.45 -0.1
v -0.15 -1.45 -0.1
v -0.25 -1.45 -0.2
v -0.15 -1.45 -0.2
v -0.25 -1.35 0.1
v -0.15 -1.35 0.1
v -0.25 -1.35 0
v -0.15 -1.35 0
v -0.55 -1.35 -0.1
v -0.45 -1.35 -0.1
v -0.55 -1.35 -0.2
v -0.45 -1.35 -0.2
v -0.15 -0.55 0
v -0.05 -0.55 0
v -0.45 -0.55 -0.2
v -0.15 -0.55 -0.2
v -0.45 -0.55 -0.3
v -0.35 -0.55 -0.3
v -0.15 -0.55 -0.3
v -0.05 -0.55 -0.3
v -0.35 -0.55 -0.4
v -0.15 -0.55 -0.4
v -0.15 -0.45 0.1
v -0.05 -0.45 0.1
v -0.15 -0.45 0
v -0.05 -0.45 0
v -0.55 -0.45 -0.2
v -0.45 -0.45 -0.2
v -0.55 -0.45 -0.3
v -0.45 -0.45 -0.3
v -0.35 -0.45 -0.3
v -0.15 -0.45 -0.3
v -0.05 -0.45 -0.3
v -0.45 -0.45 -0.4
v -0.35 -0.45 -0.4
v -0.15 -0.45 -0.4
v -0.05 -0.45 -0.4
v -0.55 -0.15 0.1
v -0.45 -0.15 0.1
v -0.55 -0.15 0
v -0.45 -0.15 0
v -0.55 -0.05 -0.2
v -0.45 -0.05 -0.2
v -0.55 -0.05 -0.3
v -0.45 -0.05 -0.3
v -0.25 -0.05 -0.3
v -0.45 -0.05 -0.4
v -0.25 -0.05 -0.4
v -0.45 0.0500001 0.1
v -0.05 0.0500001 0.1
v -0.55 0.0500001 0
v -0.45 0.0500001 0
v -0.55 0.0500001 -0.2
v -0.45 0.0500001 -0.2
v -0.45 0.0500001 -0.3
v -0.25 0.0500001 -0.3
v -0.25 0.0500001 -0.4
v -0.05 0.0500001 -0.4

# faces
f 3/1/1 2/1/1 1/1/1
f 5/1/1 4/1/1 3/1/1
f 7/1/1 3/1/1 1/1/1
f 7/1/1 6/1/1 5/1/1
f 7/1/1 5/1/1 3/1/1
f 8/1/1 6/1/1 7/1/1
f 9/1/1 6/1/1 8/1/1
f 10/1/1 6/1/1 9/1/1
f 11/1/1 9/1/1 8/1/1
f 12/1/1 9/1/1 11/1/1
f 15/1/1 14/1/1 13/1/1
f 16/1/1 14/1/1 15/1/1
f 19/1/1 18/1/1 17/1/1
f 20/1/1 18/1/1 19/1/1
f 25/1/1 21/1/1 20/1/1
f 26/1/1 21/1/1 25/1/1
f 27/1/1 23/1/1 22/1/1
f 28/1/1 23/1/1 27/1/1
f 29/1/1 25/1/1 24/1/1
f 30/1/1 25/1/1 29/1/1
f 33/1/1 32/1/1 31/1/1
f 34/1/1 32/1/1 33/1/1
f 37/1/1 36/1/1 35/1/1
f 38/1/1 36/1/1 37/1/1
f 41/1/2 42/1/2 43/1/2
f 43/1/2 42/1/2 44/1/2
f 39/1/2 40/1/2 45/1/2
f 45/1/2 40/1/2 46/1/2
f 47/1/2 48/1/2 49/1/2
f 47/1/2 49/1/2 52/1/2
f 49/1/2 50/1/2 52/1/2
f 52/1/2 50/1/2 53/1/2
f 51/1/2 52/1/2 53/1/2
f 53/1/2 50/1/2 54/1/2
f 51/1/2 53/1/2 57/1/2
f 57/1/2 53/1/2 58/1/2
f 55/1/2 56/1/2 59/1/2
f 59/1/2 56/1/2 60/1/2
f 61/1/2 62/1/2 64/1/2
f 64/1/2 62/1/2 65/1/2
f 63/1/2 64/1/2 67/1/2
f 65/1/2 66/1/2 67/1/2
f 64/1/2 65/1/2 67/1/2
f 67/1/2 66/1/2 68/1/2
f 71/1/3 70/1/3 69/1/3
f 73/1/3 71/1/3 69/1/3
f 73/1/3 72/1/3 71/1/3
f 74/1/3 72/1/3 73/1/3
f 75/1/3 72/1/3 74/1/3
f 76/1/3 72/1/3 75/1/3
f 77/1/3 72/1/3 76/1/3
f 78/1/3 72/1/3 77/1/3
f 81/1/3 80/1/3 79/1/3
f 82/1/3 80/1/3 81/1/3
f 85/1/3 84/1/3 83/1/3
f 86/1/3 84/1/3 85/1/3
f 89/1/3 88/1/3 87/1/3
f 90/1/3 88/1/3 89/1/3
f 91/1/4 92/1/4 93/1/4
f 93/1/4 92/1/4 94/1/4
f 95/1/4 96/1/4 97/1/4
f 97/1/4 96/1/4 98/1/4
f 99/1/4 100/1/4 104/1/4
f 104/1/4 100/1/4 105/1/4
f 105/1/4 100/1/4 106/1/4
f 101/1/4 102/1/4 107/1/4
f 107/1/4 102/1/4 108/1/4
f 103/1/4 104/1/4 109/1/4
f 104/1/4 105/1/4 109/1/4
f 109/1/4 105/1/4 110/1/4
f 110/1/4 105/1/4 111/1/4
f 111/1/4 105/1/4 112/1/4
f 113/1/4 114/1/4 116/1/4
f 116/1/4 114/1/4 117/1/4
f 115/1/4 116/1/4 119/1/4
f 119/1/4 116/1/4 120/1/4
f 117/1/4 118/1/4 121/1/4
f 121/1/4 118/1/4 122/1/4
f 123/1/4 124/1/4 125/1/4
f 125/1/4 124/1/4 126/1/4
f 127/1/4 128/1/4 130/1/4
f 130/1/4 128/1/4 131/1/4
f 129/1/4 130/1/4 131/1/4
f 129/1/4 131/1/4 133/1/4
f 131/1/4 132/1/4 133/1/4
f 133/1/4 132/1/4 134/1/4
f 134/1/4 132/1/4 135/1/4
f 135/1/4 132/1/4 136/1/4
f 139/1/5 138/1/5 137/1/5
f 140/1/5 138/1/5 139/1/5
f 141/1/5 138/1/5 140/1/5
f 143/1/5 139/1/5 137/1/5
f 144/2/5 140/2/5 139/2/5
f 144/1/5 139/1/5 143/1/5
f 145/1/5 142/1/5 141/1/5
f 145/2/5 140/2/5 144/2/5
f 145/1/5 141/1/5 140/1/5
f 146/1/5 142/1/5 145/1/5
f 147/1/5 142/1/5 146/1/5
f 148/1/5 145/1/5 144/1/5
f 148/1/5 146/1/5 145/1/5
f 149/1/5 146/1/5 148/1/5
f 152/1/5 151/1/5 150/1/5
f 153/1/5 151/1/5 152/1/5
f 156/1/5 155/1/5 154/1/5
f 157/1/5 155/1/5 156/1/5
f 160/1/5 159/1/5 158/1/5
f 161/1/5 159/1/5 160/1/5
f 165/1/5 163/1/5 162/1/5
f 166/1/5 165/1/5 164/1/5
f 167/1/5 165/1/5 166/1/5
f 168/1/5 163/1/5 165/1/5
f 168/1/5 165/1/5 167/1/5
f 169/1/5 163/1/5 168/1/5
f 170/1/5 168/1/5 167/1/5
f 171/1/5 168/1/5 170/1/5
f 174/1/5 173/1/5 172/1/5
f 175/1/5 173/1/5 174/1/5
f 178/1/5 177/1/5 176/1/5
f 179/1/5 177/1/5 178/1/5
f 183/1/5 180/1/5 179/1/5
f 184/1/5 180/1/5 183/1/5
f 185/1/5 182/1/5 181/1/5
f 186/1/5 182/1/5 185/1/5
f 187/1/6 188/1/6 189/1/6
f 189/1/6 188/1/6 190/1/6
f 191/1/6 192/1/6 193/1/6
f 193/1/6 192/1/6 194/1/6
f 194/1/6 195/1/6 196/1/6
f 196/1/6 195/1/6 197/1/6
f 198/1/6 199/1/6 201/1/6
f 200/1/6 201/1/6 202/1/6
f 201/1/6 199/1/6 203/1/6
f 202/1/6 201/1/6 203/1/6
f 203/1/6 199/1/6 204/1/6
f 204/1/6 199/1/6 205/1/6
f 205/1/6 199/1/6 206/1/6
f 206/1/6 199/1/6 207/1/6
