# MagicaVoxel @ Ephtracy

# group
o rLegLower

# material
mtllib worker-3-rLegLower.mtl
usemtl palette

# normals
vn -1 0 0
vn 1 0 0
vn 0 0 1
vn 0 0 -1
vn 0 -1 0
vn 0 1 0

# texcoords
vt 0.0292969 0.5
vt 0.537109 0.5
vt 0.986328 0.5
vt 0.990234 0.5

# verts
v -0.55 -2.85 0.5
v -0.55 -2.85 0.2
v -0.55 -2.85 -0.3
v -0.55 -2.75 0.5
v -0.55 -2.75 0.4
v -0.55 -2.75 -0.2
v -0.55 -2.75 -0.3
v -0.55 -2.65 0.4
v -0.55 -2.65 0.2
v -0.55 -2.55 0.2
v -0.55 -2.55 0
v -0.55 -2.25 0
v -0.55 -2.25 -0.2
v -0.55 -2.15 0
v -0.55 -2.15 -0.2
v -0.45 -2.75 -0.2
v -0.45 -2.75 -0.3
v -0.45 -2.25 -0.2
v -0.45 -2.25 -0.3
v -0.45 -2.15 0
v -0.45 -2.15 -0.2
v -0.45 -2.15 -0.3
v -0.45 -1.65 -0.1
v -0.45 -1.65 -0.2
v -0.45 -1.55 0
v -0.45 -1.55 -0.1
v -0.35 -2.85 0.5
v -0.35 -2.85 0.4
v -0.35 -2.75 0.5
v -0.35 -2.75 0.4
v -0.35 -2.75 0.3
v -0.35 -2.65 0.4
v -0.35 -2.65 0.3
v -0.35 -2.65 0.2
v -0.35 -2.65 0
v -0.35 -2.55 0.2
v -0.35 -2.55 0
v -0.25 -2.85 0.4
v -0.25 -2.85 0
v -0.25 -2.85 -0.3
v -0.25 -2.75 0.4
v -0.25 -2.75 0.3
v -0.25 -2.65 0.3
v -0.25 -2.65 0
v -0.25 -2.45 0
v -0.25 -2.45 -0.2
v -0.25 -2.25 -0.2
v -0.25 -2.25 -0.3
v -0.25 -2.15 0
v -0.25 -2.15 -0.2
v -0.25 -2.15 -0.3
v -0.25 -1.65 -0.1
v -0.25 -1.65 -0.2
v -0.25 -1.55 0
v -0.25 -1.55 -0.1
v -0.15 -2.45 0
v -0.15 -2.45 -0.2
v -0.15 -2.25 0
v -0.15 -2.25 -0.2
v -0.15 -2.15 0
v -0.15 -2.15 -0.2
v -0.55 -2.85 0.5
v -0.55 -2.75 0.5
v -0.35 -2.85 0.5
v -0.35 -2.75 0.5
v -0.55 -2.75 0.4
v -0.55 -2.65 0.4
v -0.35 -2.85 0.4
v -0.35 -2.75 0.4
v -0.35 -2.65 0.4
v -0.25 -2.85 0.4
v -0.25 -2.75 0.4
v -0.35 -2.75 0.3
v -0.35 -2.65 0.3
v -0.25 -2.75 0.3
v -0.25 -2.65 0.3
v -0.55 -2.65 0.2
v -0.55 -2.55 0.2
v -0.35 -2.65 0.2
v -0.35 -2.55 0.2
v -0.55 -2.55 0
v -0.55 -2.25 0
v -0.55 -2.15 0
v -0.45 -2.15 0
v -0.45 -1.55 0
v -0.35 -2.65 0
v -0.35 -2.55 0
v -0.25 -2.65 0
v -0.25 -2.45 0
v -0.25 -2.15 0
v -0.25 -1.55 0
v -0.15 -2.45 0
v -0.15 -2.25 0
v -0.15 -2.15 0
v -0.45 -1.65 -0.1
v -0.45 -1.55 -0.1
v -0.25 -1.65 -0.1
v -0.25 -1.55 -0.1
v -0.55 -2.75 -0.2
v -0.55 -2.25 -0.2
v -0.55 -2.15 -0.2
v -0.45 -2.75 -0.2
v -0.45 -2.25 -0.2
v -0.45 -2.15 -0.2
v -0.45 -1.65 -0.2
v -0.25 -2.45 -0.2
v -0.25 -2.25 -0.2
v -0.25 -2.15 -0.2
v -0.25 -1.65 -0.2
v -0.15 -2.45 -0.2
v -0.15 -2.25 -0.2
v -0.15 -2.15 -0.2
v -0.55 -2.85 -0.3
v -0.55 -2.75 -0.3
v -0.45 -2.75 -0.3
v -0.45 -2.25 -0.3
v -0.45 -2.15 -0.3
v -0.25 -2.85 -0.3
v -0.25 -2.25 -0.3
v -0.25 -2.15 -0.3
v -0.55 -2.85 0.5
v -0.35 -2.85 0.5
v -0.35 -2.85 0.4
v -0.25 -2.85 0.4
v -0.55 -2.85 0.2
v -0.35 -2.85 0.2
v -0.35 -2.85 0
v -0.25 -2.85 0
v -0.55 -2.85 -0.3
v -0.25 -2.85 -0.3
v -0.25 -2.45 0
v -0.15 -2.45 0
v -0.25 -2.45 -0.2
v -0.15 -2.45 -0.2
v -0.55 -2.75 0.5
v -0.35 -2.75 0.5
v -0.55 -2.75 0.4
v -0.35 -2.75 0.4
v -0.25 -2.75 0.4
v -0.35 -2.75 0.3
v -0.25 -2.75 0.3
v -0.55 -2.75 -0.2
v -0.45 -2.75 -0.2
v -0.55 -2.75 -0.3
v -0.45 -2.75 -0.3
v -0.55 -2.65 0.4
v -0.35 -2.65 0.4
v -0.35 -2.65 0.3
v -0.25 -2.65 0.3
v -0.55 -2.65 0.2
v -0.35 -2.65 0.2
v -0.35 -2.65 0
v -0.25 -2.65 0
v -0.55 -2.55 0.2
v -0.35 -2.55 0.2
v -0.55 -2.55 0
v -0.35 -2.55 0
v -0.55 -2.15 0
v -0.45 -2.15 0
v -0.25 -2.15 0
v -0.15 -2.15 0
v -0.55 -2.15 -0.2
v -0.45 -2.15 -0.2
v -0.25 -2.15 -0.2
v -0.15 -2.15 -0.2
v -0.45 -2.15 -0.3
v -0.25 -2.15 -0.3
v -0.45 -1.65 -0.1
v -0.25 -1.65 -0.1
v -0.45 -1.65 -0.2
v -0.25 -1.65 -0.2
v -0.45 -1.55 0
v -0.25 -1.55 0
v -0.45 -1.55 -0.1
v -0.25 -1.55 -0.1

# faces
f 4/4/1 2/4/1 1/4/1
f 5/4/1 2/4/1 4/4/1
f 6/2/1 3/2/1 2/2/1
f 7/2/1 3/2/1 6/2/1
f 8/4/1 2/4/1 5/4/1
f 9/2/1 6/2/1 2/2/1
f 9/4/1 2/4/1 8/4/1
f 10/2/1 6/2/1 9/2/1
f 11/2/1 6/2/1 10/2/1
f 12/2/1 6/2/1 11/2/1
f 13/2/1 6/2/1 12/2/1
f 14/3/1 13/3/1 12/3/1
f 15/3/1 13/3/1 14/3/1
f 18/2/1 17/2/1 16/2/1
f 19/2/1 17/2/1 18/2/1
f 21/3/1 19/3/1 18/3/1
f 22/3/1 19/3/1 21/3/1
f 23/1/1 21/1/1 20/1/1
f 24/1/1 21/1/1 23/1/1
f 25/1/1 23/1/1 20/1/1
f 26/1/1 23/1/1 25/1/1
f 27/4/2 28/4/2 29/4/2
f 29/4/2 28/4/2 30/4/2
f 30/4/2 31/4/2 32/4/2
f 32/4/2 31/4/2 33/4/2
f 34/2/2 35/2/2 36/2/2
f 36/2/2 35/2/2 37/2/2
f 38/4/2 39/4/2 41/4/2
f 41/4/2 39/4/2 42/4/2
f 42/4/2 39/4/2 43/4/2
f 39/2/2 40/2/2 44/2/2
f 43/4/2 39/4/2 44/4/2
f 44/2/2 40/2/2 45/2/2
f 45/2/2 40/2/2 46/2/2
f 46/2/2 40/2/2 47/2/2
f 47/2/2 40/2/2 48/2/2
f 47/3/2 48/3/2 50/3/2
f 50/3/2 48/3/2 51/3/2
f 49/1/2 50/1/2 52/1/2
f 52/1/2 50/1/2 53/1/2
f 49/1/2 52/1/2 54/1/2
f 54/1/2 52/1/2 55/1/2
f 56/2/2 57/2/2 58/2/2
f 58/2/2 57/2/2 59/2/2
f 58/3/2 59/3/2 60/3/2
f 60/3/2 59/3/2 61/3/2
f 64/4/3 63/4/3 62/4/3
f 65/4/3 63/4/3 64/4/3
f 69/4/3 67/4/3 66/4/3
f 70/4/3 67/4/3 69/4/3
f 71/4/3 69/4/3 68/4/3
f 72/4/3 69/4/3 71/4/3
f 75/4/3 74/4/3 73/4/3
f 76/4/3 74/4/3 75/4/3
f 79/2/3 78/2/3 77/2/3
f 80/2/3 78/2/3 79/2/3
f 84/3/3 83/3/3 82/3/3
f 87/2/3 82/2/3 81/2/3
f 88/2/3 87/2/3 86/2/3
f 89/2/3 82/2/3 87/2/3
f 89/2/3 87/2/3 88/2/3
f 90/1/3 85/1/3 84/1/3
f 90/3/3 84/3/3 82/3/3
f 91/1/3 85/1/3 90/1/3
f 92/2/3 82/2/3 89/2/3
f 93/3/3 90/3/3 82/3/3
f 93/2/3 82/2/3 92/2/3
f 94/3/3 90/3/3 93/3/3
f 95/1/4 96/1/4 97/1/4
f 97/1/4 96/1/4 98/1/4
f 99/2/4 100/2/4 102/2/4
f 100/3/4 101/3/4 103/3/4
f 102/2/4 100/2/4 103/2/4
f 103/3/4 101/3/4 104/3/4
f 104/1/4 105/1/4 108/1/4
f 108/1/4 105/1/4 109/1/4
f 106/2/4 107/2/4 110/2/4
f 107/3/4 108/3/4 111/3/4
f 110/2/4 107/2/4 111/2/4
f 111/3/4 108/3/4 112/3/4
f 113/2/4 114/2/4 115/2/4
f 113/2/4 115/2/4 118/2/4
f 115/2/4 116/2/4 118/2/4
f 116/3/4 117/3/4 119/3/4
f 118/2/4 116/2/4 119/2/4
f 119/3/4 117/3/4 120/3/4
f 123/4/5 122/4/5 121/4/5
f 125/4/5 123/4/5 121/4/5
f 125/4/5 124/4/5 123/4/5
f 126/4/5 124/4/5 125/4/5
f 127/2/5 126/2/5 125/2/5
f 127/4/5 124/4/5 126/4/5
f 128/4/5 124/4/5 127/4/5
f 129/2/5 127/2/5 125/2/5
f 129/2/5 128/2/5 127/2/5
f 130/2/5 128/2/5 129/2/5
f 133/2/5 132/2/5 131/2/5
f 134/2/5 132/2/5 133/2/5
f 135/4/6 136/4/6 137/4/6
f 137/4/6 136/4/6 138/4/6
f 138/4/6 139/4/6 140/4/6
f 140/4/6 139/4/6 141/4/6
f 142/2/6 143/2/6 144/2/6
f 144/2/6 143/2/6 145/2/6
f 146/4/6 147/4/6 148/4/6
f 146/4/6 148/4/6 150/4/6
f 148/4/6 149/4/6 150/4/6
f 150/4/6 149/4/6 151/4/6
f 151/4/6 149/4/6 152/4/6
f 152/4/6 149/4/6 153/4/6
f 154/2/6 155/2/6 156/2/6
f 156/2/6 155/2/6 157/2/6
f 158/3/6 159/3/6 162/3/6
f 162/3/6 159/3/6 163/3/6
f 160/3/6 161/3/6 164/3/6
f 164/3/6 161/3/6 165/3/6
f 163/3/6 164/3/6 166/3/6
f 166/3/6 164/3/6 167/3/6
f 168/1/6 169/1/6 170/1/6
f 170/1/6 169/1/6 171/1/6
f 172/1/6 173/1/6 174/1/6
f 174/1/6 173/1/6 175/1/6
