# MagicaVoxel @ Ephtracy

# group
o R_Calf-3

# material
mtllib RPGCharacters_Source-10-R_Calf-3.mtl
usemtl palette

# normals
vn -1 0 0
vn 1 0 0
vn 0 0 1
vn 0 0 -1
vn 0 -1 0
vn 0 1 0

# texcoords
vt 0.880859 0.5
vt 0.884766 0.5
vt 0.892578 0.5
vt 0.896484 0.5

# verts
v -0.1 -0.4 0.05
v -0.1 -0.4 -0.05
v -0.1 0.1 0.05
v -0.1 0.1 -0.05
v -0.1 0.2 0.05
v -0.1 0.2 -0.05
v -0.1 0.4 0.05
v -0.1 0.4 -0.05
v 0.1 -0.4 0.05
v 0.1 -0.4 -0.05
v 0.1 0.1 0.05
v 0.1 0.1 -0.05
v 0.1 0.2 0.05
v 0.1 0.2 -0.05
v 0.1 0.3 0.05
v 0.1 0.3 -0.05
v 0.1 0.4 0.05
v 0.1 0.4 -0.05
v -0.1 -0.4 0.05
v -0.1 0.1 0.05
v -0.1 0.2 0.05
v -0.1 0.4 0.05
v 0 0.3 0.05
v 0 0.4 0.05
v 0.1 -0.4 0.05
v 0.1 0.1 0.05
v 0.1 0.2 0.05
v 0.1 0.3 0.05
v 0.1 0.4 0.05
v -0.1 -0.4 -0.05
v -0.1 0.1 -0.05
v -0.1 0.2 -0.05
v -0.1 0.4 -0.05
v 0 0.3 -0.05
v 0 0.4 -0.05
v 0.1 -0.4 -0.05
v 0.1 0.1 -0.05
v 0.1 0.2 -0.05
v 0.1 0.3 -0.05
v 0.1 0.4 -0.05
v -0.1 -0.4 0.05
v 0.1 -0.4 0.05
v -0.1 -0.4 -0.05
v 0.1 -0.4 -0.05
v -0.1 0.4 0.05
v 0 0.4 0.05
v 0.1 0.4 0.05
v -0.1 0.4 -0.05
v 0 0.4 -0.05
v 0.1 0.4 -0.05

# faces
f 3/2/1 2/2/1 1/2/1
f 4/2/1 2/2/1 3/2/1
f 5/1/1 4/1/1 3/1/1
f 6/1/1 4/1/1 5/1/1
f 7/4/1 6/4/1 5/4/1
f 8/4/1 6/4/1 7/4/1
f 9/2/2 10/2/2 11/2/2
f 11/2/2 10/2/2 12/2/2
f 11/1/2 12/1/2 13/1/2
f 13/1/2 12/1/2 14/1/2
f 13/4/2 14/4/2 15/4/2
f 15/4/2 14/4/2 16/4/2
f 15/3/2 16/3/2 17/3/2
f 17/3/2 16/3/2 18/3/2
f 23/4/3 22/4/3 21/4/3
f 24/4/3 22/4/3 23/4/3
f 25/2/3 20/2/3 19/2/3
f 26/1/3 21/1/3 20/1/3
f 26/2/3 20/2/3 25/2/3
f 27/4/3 23/4/3 21/4/3
f 27/1/3 21/1/3 26/1/3
f 28/3/3 24/3/3 23/3/3
f 28/4/3 23/4/3 27/4/3
f 29/3/3 24/3/3 28/3/3
f 32/4/4 33/4/4 34/4/4
f 34/4/4 33/4/4 35/4/4
f 30/2/4 31/2/4 36/2/4
f 31/1/4 32/1/4 37/1/4
f 36/2/4 31/2/4 37/2/4
f 32/4/4 34/4/4 38/4/4
f 37/1/4 32/1/4 38/1/4
f 34/3/4 35/3/4 39/3/4
f 38/4/4 34/4/4 39/4/4
f 39/3/4 35/3/4 40/3/4
f 43/2/5 42/2/5 41/2/5
f 44/2/5 42/2/5 43/2/5
f 45/4/6 46/4/6 48/4/6
f 46/3/6 47/3/6 49/3/6
f 48/4/6 46/4/6 49/4/6
f 49/3/6 47/3/6 50/3/6
