# MagicaVoxel @ Ephtracy

# group
o L_Calf-3

# material
mtllib RPGCharacters_Source-13-L_Calf-3.mtl
usemtl palette

# normals
vn -1 0 0
vn 1 0 0
vn 0 0 1
vn 0 0 -1
vn 0 -1 0
vn 0 1 0

# texcoords
vt 0.880859 0.5
vt 0.884766 0.5
vt 0.892578 0.5
vt 0.896484 0.5

# verts
v -0.1 -0.4 0.05
v -0.1 -0.4 -0.05
v -0.1 0.1 0.05
v -0.1 0.1 -0.05
v -0.1 0.2 0.05
v -0.1 0.2 -0.05
v -0.1 0.3 0.05
v -0.1 0.3 -0.05
v -0.1 0.4 0.05
v -0.1 0.4 -0.05
v 0.1 -0.4 0.05
v 0.1 -0.4 -0.05
v 0.1 0.1 0.05
v 0.1 0.1 -0.05
v 0.1 0.2 0.05
v 0.1 0.2 -0.05
v 0.1 0.4 0.05
v 0.1 0.4 -0.05
v -0.1 -0.4 0.05
v -0.1 0.1 0.05
v -0.1 0.2 0.05
v -0.1 0.3 0.05
v -0.1 0.4 0.05
v 0 0.3 0.05
v 0 0.4 0.05
v 0.1 -0.4 0.05
v 0.1 0.1 0.05
v 0.1 0.2 0.05
v 0.1 0.4 0.05
v -0.1 -0.4 -0.05
v -0.1 0.1 -0.05
v -0.1 0.2 -0.05
v -0.1 0.3 -0.05
v -0.1 0.4 -0.05
v 0 0.3 -0.05
v 0 0.4 -0.05
v 0.1 -0.4 -0.05
v 0.1 0.1 -0.05
v 0.1 0.2 -0.05
v 0.1 0.4 -0.05
v -0.1 -0.4 0.05
v 0.1 -0.4 0.05
v -0.1 -0.4 -0.05
v 0.1 -0.4 -0.05
v -0.1 0.4 0.05
v 0 0.4 0.05
v 0.1 0.4 0.05
v -0.1 0.4 -0.05
v 0 0.4 -0.05
v 0.1 0.4 -0.05

# faces
f 3/2/1 2/2/1 1/2/1
f 4/2/1 2/2/1 3/2/1
f 5/1/1 4/1/1 3/1/1
f 6/1/1 4/1/1 5/1/1
f 7/4/1 6/4/1 5/4/1
f 8/4/1 6/4/1 7/4/1
f 9/3/1 8/3/1 7/3/1
f 10/3/1 8/3/1 9/3/1
f 11/2/2 12/2/2 13/2/2
f 13/2/2 12/2/2 14/2/2
f 13/1/2 14/1/2 15/1/2
f 15/1/2 14/1/2 16/1/2
f 15/4/2 16/4/2 17/4/2
f 17/4/2 16/4/2 18/4/2
f 24/4/3 22/4/3 21/4/3
f 24/3/3 23/3/3 22/3/3
f 25/3/3 23/3/3 24/3/3
f 26/2/3 20/2/3 19/2/3
f 27/1/3 21/1/3 20/1/3
f 27/2/3 20/2/3 26/2/3
f 28/4/3 24/4/3 21/4/3
f 28/1/3 21/1/3 27/1/3
f 28/4/3 25/4/3 24/4/3
f 29/4/3 25/4/3 28/4/3
f 32/4/4 33/4/4 35/4/4
f 33/3/4 34/3/4 35/3/4
f 35/3/4 34/3/4 36/3/4
f 30/2/4 31/2/4 37/2/4
f 31/1/4 32/1/4 38/1/4
f 37/2/4 31/2/4 38/2/4
f 32/4/4 35/4/4 39/4/4
f 38/1/4 32/1/4 39/1/4
f 35/4/4 36/4/4 39/4/4
f 39/4/4 36/4/4 40/4/4
f 43/2/5 42/2/5 41/2/5
f 44/2/5 42/2/5 43/2/5
f 45/3/6 46/3/6 48/3/6
f 46/4/6 47/4/6 49/4/6
f 48/3/6 46/3/6 49/3/6
f 49/4/6 47/4/6 50/4/6
