# MagicaVoxel @ Ephtracy

# group
o R_Arm

# material
mtllib RPGCharacters_Source-1-R_Arm.mtl
usemtl palette

# normals
vn -1 0 0
vn 1 0 0
vn 0 0 1
vn 0 0 -1
vn 0 -1 0
vn 0 1 0

# texcoords
vt 0.884766 0.5
vt 0.892578 0.5
vt 0.896484 0.5
vt 0.900391 0.5

# verts
v -0.3 -0.1 0.1
v -0.3 -0.1 -0.1
v -0.3 0 0.1
v -0.3 0 0
v -0.3 0.1 0
v -0.3 0.1 -0.1
v -0.2 0 0.1
v -0.2 0 0
v -0.2 0.1 0.1
v -0.2 0.1 0
v 0.2 -0.2 0.1
v 0.2 -0.2 -0.1
v 0.2 -0.1 0.2
v 0.2 -0.1 0.1
v 0.2 -0.1 0
v 0.2 -0.1 -0.1
v 0.2 -0.1 -0.2
v 0.2 0 0.1
v 0.2 0.1 0.2
v 0.2 0.1 0.1
v 0.2 0.1 -0.1
v 0.2 0.1 -0.2
v 0.2 0.2 0.1
v 0.2 0.2 -0.1
v 0.3 -0.2 0.1
v 0.3 -0.2 -0.1
v 0.3 -0.1 0.2
v 0.3 -0.1 0.1
v 0.3 -0.1 0
v 0.3 -0.1 -0.1
v 0.3 -0.1 -0.2
v 0.3 0 0
v 0.3 0 -0.1
v 0.3 0.1 0.2
v 0.3 0.1 0.1
v 0.3 0.1 -0.1
v 0.3 0.1 -0.2
v 0.3 0.2 0.1
v 0.3 0.2 -0.1
v 0.2 -0.1 0.2
v 0.2 0.1 0.2
v 0.3 -0.1 0.2
v 0.3 0.1 0.2
v -0.3 -0.1 0.1
v -0.3 0 0.1
v -0.2 0 0.1
v -0.2 0.1 0.1
v 0.1 -0.1 0.1
v 0.1 0 0.1
v 0.2 -0.2 0.1
v 0.2 -0.1 0.1
v 0.2 0 0.1
v 0.2 0.1 0.1
v 0.2 0.2 0.1
v 0.3 -0.2 0.1
v 0.3 -0.1 0.1
v 0.3 0.1 0.1
v 0.3 0.2 0.1
v -0.3 0 0
v -0.3 0.1 0
v -0.2 0 0
v -0.2 0.1 0
v -0.3 -0.1 -0.1
v -0.3 0.1 -0.1
v 0.2 -0.2 -0.1
v 0.2 -0.1 -0.1
v 0.2 0.1 -0.1
v 0.2 0.2 -0.1
v 0.3 -0.2 -0.1
v 0.3 -0.1 -0.1
v 0.3 0.1 -0.1
v 0.3 0.2 -0.1
v 0.2 -0.1 -0.2
v 0.2 0.1 -0.2
v 0.3 -0.1 -0.2
v 0.3 0.1 -0.2
v 0.2 -0.2 0.1
v 0.3 -0.2 0.1
v 0.2 -0.2 -0.1
v 0.3 -0.2 -0.1
v 0.2 -0.1 0.2
v 0.3 -0.1 0.2
v -0.3 -0.1 0.1
v 0.1 -0.1 0.1
v 0.2 -0.1 0.1
v 0.3 -0.1 0.1
v 0.1 -0.1 0
v 0.2 -0.1 0
v -0.3 -0.1 -0.1
v 0.2 -0.1 -0.1
v 0.3 -0.1 -0.1
v 0.2 -0.1 -0.2
v 0.3 -0.1 -0.2
v -0.3 0 0.1
v -0.2 0 0.1
v -0.3 0 0
v -0.2 0 0
v 0.2 0.1 0.2
v 0.3 0.1 0.2
v -0.2 0.1 0.1
v 0.2 0.1 0.1
v 0.3 0.1 0.1
v -0.3 0.1 0
v -0.2 0.1 0
v -0.3 0.1 -0.1
v 0.2 0.1 -0.1
v 0.3 0.1 -0.1
v 0.2 0.1 -0.2
v 0.3 0.1 -0.2
v 0.2 0.2 0.1
v 0.3 0.2 0.1
v 0.2 0.2 -0.1
v 0.3 0.2 -0.1

# faces
f 3/3/1 2/3/1 1/3/1
f 4/3/1 2/3/1 3/3/1
f 5/3/1 2/3/1 4/3/1
f 6/3/1 2/3/1 5/3/1
f 9/3/1 8/3/1 7/3/1
f 10/3/1 8/3/1 9/3/1
f 14/1/1 12/1/1 11/1/1
f 15/1/1 12/1/1 14/1/1
f 16/1/1 12/1/1 15/1/1
f 18/1/1 14/1/1 13/1/1
f 19/1/1 18/1/1 13/1/1
f 20/1/1 18/1/1 19/1/1
f 21/1/1 17/1/1 16/1/1
f 22/1/1 17/1/1 21/1/1
f 23/1/1 21/1/1 20/1/1
f 24/1/1 21/1/1 23/1/1
f 25/1/2 26/1/2 28/1/2
f 28/1/2 26/1/2 29/1/2
f 29/1/2 26/1/2 30/1/2
f 28/4/2 29/4/2 32/4/2
f 30/1/2 31/1/2 32/1/2
f 29/1/2 30/1/2 32/1/2
f 32/1/2 31/1/2 33/1/2
f 27/1/2 28/1/2 34/1/2
f 28/4/2 32/4/2 35/4/2
f 34/1/2 28/1/2 35/1/2
f 32/4/2 33/4/2 35/4/2
f 33/1/2 31/1/2 36/1/2
f 35/4/2 33/4/2 36/4/2
f 36/1/2 31/1/2 37/1/2
f 35/1/2 36/1/2 38/1/2
f 38/1/2 36/1/2 39/1/2
f 42/1/3 41/1/3 40/1/3
f 43/1/3 41/1/3 42/1/3
f 46/3/3 45/3/3 44/3/3
f 48/3/3 46/3/3 44/3/3
f 48/3/3 47/3/3 46/3/3
f 49/3/3 47/3/3 48/3/3
f 51/2/3 49/2/3 48/2/3
f 52/3/3 47/3/3 49/3/3
f 52/2/3 49/2/3 51/2/3
f 53/3/3 47/3/3 52/3/3
f 55/1/3 51/1/3 50/1/3
f 56/1/3 51/1/3 55/1/3
f 57/1/3 54/1/3 53/1/3
f 58/1/3 54/1/3 57/1/3
f 61/3/3 60/3/3 59/3/3
f 62/3/3 60/3/3 61/3/3
f 63/3/4 64/3/4 66/3/4
f 66/3/4 64/3/4 67/3/4
f 65/1/4 66/1/4 69/1/4
f 69/1/4 66/1/4 70/1/4
f 67/1/4 68/1/4 71/1/4
f 71/1/4 68/1/4 72/1/4
f 73/1/4 74/1/4 75/1/4
f 75/1/4 74/1/4 76/1/4
f 79/1/5 78/1/5 77/1/5
f 80/1/5 78/1/5 79/1/5
f 85/1/5 82/1/5 81/1/5
f 86/1/5 82/1/5 85/1/5
f 87/3/5 84/3/5 83/3/5
f 87/2/5 85/2/5 84/2/5
f 88/2/5 85/2/5 87/2/5
f 89/3/5 87/3/5 83/3/5
f 89/3/5 88/3/5 87/3/5
f 90/3/5 88/3/5 89/3/5
f 92/1/5 91/1/5 90/1/5
f 93/1/5 91/1/5 92/1/5
f 94/3/6 95/3/6 96/3/6
f 96/3/6 95/3/6 97/3/6
f 98/1/6 99/1/6 101/1/6
f 101/1/6 99/1/6 102/1/6
f 100/3/6 101/3/6 104/3/6
f 103/3/6 104/3/6 105/3/6
f 104/3/6 101/3/6 106/3/6
f 105/3/6 104/3/6 106/3/6
f 106/1/6 107/1/6 108/1/6
f 108/1/6 107/1/6 109/1/6
f 110/1/6 111/1/6 112/1/6
f 112/1/6 111/1/6 113/1/6
